<svg width="32" height="33" viewBox="0 0 32 33" fill="none" xmlns="http://www.w3.org/2000/svg">
<path d="M29.3332 14.0835V19.0315C29.3332 22.6088 29.3332 24.3968 28.2985 25.5848C27.3745 26.6462 25.9092 26.9022 23.1638 27.1982C22.8318 27.2342 22.5332 27.0128 22.3905 26.7128C21.9532 25.7995 21.0465 25.1715 19.9998 25.1715C18.7612 25.1715 17.7198 26.0502 17.4198 27.2382C17.3398 27.5582 17.0945 27.8302 16.7665 27.8648L11.4625 28.4155C7.35317 28.8422 5.2985 29.0555 3.9825 27.8182C2.6665 26.5808 2.6665 24.4342 2.6665 20.1408V15.4702" stroke="#FFDB91" stroke-width="2" stroke-linecap="round" stroke-linejoin="round"/>
<path d="M9.23998 16.6407L24.6253 15.9954C28.28 15.842 30.492 14.77 28.6973 10.962C27.4507 8.31672 25.208 6.19805 22.4307 5.05138C20.632 4.30872 19.2173 5.06605 17.728 5.94472C17.22 6.24472 17.4387 6.82738 17.4387 7.29672C17.4397 7.65075 17.3709 8.00151 17.2363 8.32894C17.1017 8.65638 16.9038 8.95405 16.654 9.20495C16.4043 9.45584 16.1075 9.65503 15.7806 9.79112C15.4538 9.92721 15.1033 9.99752 14.7493 9.99805C14.096 9.99805 13.496 9.76338 13.0293 9.37405C11.76 8.31272 2.22932 14.5127 2.68265 15.9407C2.98665 16.9007 5.07065 16.814 9.23998 16.6394M21.344 11.6967H21.3307M22.6773 21.0301H22.664M9.33332 22.3634C9.33332 22.8938 9.54403 23.4025 9.9191 23.7776C10.2942 24.1527 10.8029 24.3634 11.3333 24.3634C11.8638 24.3634 12.3725 24.1527 12.7475 23.7776C13.1226 23.4025 13.3333 22.8938 13.3333 22.3634C13.3333 21.8329 13.1226 21.3242 12.7475 20.9492C12.3725 20.5741 11.8638 20.3634 11.3333 20.3634C10.8029 20.3634 10.2942 20.5741 9.9191 20.9492C9.54403 21.3242 9.33332 21.8329 9.33332 22.3634Z" stroke="#FFDB91" stroke-width="2" stroke-linecap="round" stroke-linejoin="round"/>
</svg>
