<svg width="32" height="32" viewBox="0 0 32 32" fill="none" xmlns="http://www.w3.org/2000/svg">
<path d="M26.6902 16.7826H26.2481V15.4759H26.3118C26.6214 15.4759 26.8725 15.2249 26.8725 14.9152V5.41826C26.8725 5.19418 26.7408 5.00143 26.5509 4.91165V2.68929C26.5509 1.20639 25.3445 0 23.8616 0H8.13848C6.65558 0 5.44919 1.20639 5.44919 2.68929V4.91158C5.25924 5.00136 5.12754 5.19418 5.12754 5.41819V14.9152C5.12754 15.2249 5.37861 15.4759 5.68827 15.4759H5.75191V16.7827H5.30985C4.21819 16.7827 3.33008 17.6708 3.33008 18.7625V26.2361C3.33008 29.4144 5.91578 32 9.09395 32H22.9061C26.0843 32 28.67 29.4143 28.67 26.2361V18.7624C28.67 17.6708 27.7818 16.7826 26.6902 16.7826ZM26.6902 17.9041C27.1634 17.9041 27.5485 18.2891 27.5485 18.7624V22.2621L26.2481 21.4424V17.904L26.6902 17.9041ZM4.89372 23.613C4.81158 23.613 4.77359 23.563 4.75628 23.5211C4.74212 23.487 4.73392 23.4395 4.76258 23.3917L6.47461 22.3126H25.5254L27.2375 23.3917C27.2662 23.4395 27.2579 23.487 27.2438 23.5211C27.2264 23.563 27.1885 23.613 27.1063 23.613H4.89372ZM25.0867 24.7344C24.846 26.2192 23.5343 27.3215 21.9033 27.3215H10.0967C8.48578 27.3215 7.18694 26.2229 6.92319 24.7344H25.0867ZM25.7511 7.4574H6.24899V5.97898H25.7511V7.4574ZM6.24899 9.25171H25.7511V11.046H6.24899V9.25171ZM6.57063 2.68929C6.57063 1.8248 7.27392 1.12144 8.13848 1.12144H23.8616C24.7261 1.12144 25.4294 1.8248 25.4294 2.68929V4.85754H6.57063V2.68929ZM19.5886 15.4759C19.8983 15.4759 20.1494 15.2249 20.1494 14.9152C20.1494 14.6056 19.8983 14.3545 19.5886 14.3545H6.24899V12.8404H25.7511V14.3545H23.1773C22.8676 14.3545 22.6165 14.6056 22.6165 14.9152C22.6165 15.2249 22.8676 15.4759 23.1773 15.4759H25.1267V21.1912H6.87335V15.4759H19.5886ZM5.30985 17.9041H5.75191V21.4425L4.45152 22.2622V18.7625C4.45152 18.2891 4.83653 17.9041 5.30985 17.9041ZM22.9061 30.8786H9.09395C6.53412 30.8786 4.45152 28.796 4.45152 26.2361V24.655C4.59037 24.7063 4.73952 24.7344 4.89379 24.7344H5.7892C5.91143 25.6778 6.3406 26.5432 7.03014 27.2137C7.84536 28.0063 8.93443 28.4429 10.0968 28.4429H21.9032C24.1662 28.4429 25.9728 26.8498 26.2186 24.7344H27.1062C27.2605 24.7344 27.4097 24.7063 27.5485 24.655V26.2361C27.5485 28.796 25.4659 30.8786 22.9061 30.8786Z" fill="#F1731F"/>
</svg>
