<svg width="32" height="33" viewBox="0 0 32 33" fill="none" xmlns="http://www.w3.org/2000/svg">
<path d="M15.9998 22.0832C23.3636 22.0832 29.3332 17.9045 29.3332 12.7498C29.3332 7.59518 23.3636 3.4165 15.9998 3.4165C8.63604 3.4165 2.6665 7.59518 2.6665 12.7498C2.6665 17.9045 8.63604 22.0832 15.9998 22.0832Z" stroke="#3A2D26" stroke-width="2" stroke-linecap="round" stroke-linejoin="round"/>
<path d="M2.6665 12.75V16.75C2.6665 20.2862 4.07126 23.6776 6.57175 26.1781C9.07223 28.6786 12.4636 30.0833 15.9998 30.0833C19.5361 30.0833 22.9274 28.6786 25.4279 26.1781C27.9284 23.6776 29.3332 20.2862 29.3332 16.75V12.75" stroke="#3A2D26" stroke-width="2" stroke-linecap="round" stroke-linejoin="round"/>
<path d="M16 16.75C20.4183 16.75 24 14.9591 24 12.75C24 10.5409 20.4183 8.75 16 8.75C11.5817 8.75 8 10.5409 8 12.75C8 14.9591 11.5817 16.75 16 16.75Z" stroke="#3A2D26" stroke-width="2" stroke-linecap="round" stroke-linejoin="round"/>
<path d="M18.6665 11.4165L26.6665 3.4165H29.3332" stroke="#3A2D26" stroke-width="2" stroke-linecap="round" stroke-linejoin="round"/>
</svg>
