<svg width="32" height="32" viewBox="0 0 32 32" fill="none" xmlns="http://www.w3.org/2000/svg">
<g clip-path="url(#clip0_193_483)">
<path d="M19.7712 17.8383L19.2998 18.3096L19.7712 18.781C20.0315 19.0413 20.0315 19.4635 19.7712 19.7239C19.5109 19.9841 19.0887 19.9841 18.8283 19.7239L18.3569 19.2525L16.9428 20.6667L18.357 22.0809L18.8284 21.6095C19.0887 21.3492 19.5109 21.3492 19.7713 21.6095C20.0316 21.8698 20.0316 22.2919 19.7713 22.5523L19.2999 23.0237L19.7713 23.4951C20.0316 23.7554 20.0317 24.1775 19.7713 24.4379C19.5109 24.6982 19.0888 24.6982 18.8284 24.4379L18.357 23.9665L17.8856 24.4379C17.7555 24.5681 17.5848 24.6332 17.4142 24.6332C17.2436 24.6332 17.0729 24.5681 16.9428 24.4379C16.6825 24.1776 16.6825 23.7555 16.9428 23.4951L17.4142 23.0237L16 21.6095L14.5858 23.0237L15.0572 23.4951C15.3175 23.7554 15.3175 24.1775 15.0572 24.4379C14.7969 24.6982 14.3747 24.6982 14.1144 24.4379L13.643 23.9665L13.1716 24.4379C12.9113 24.6983 12.4892 24.6982 12.2287 24.4379C11.9684 24.1776 11.9684 23.7555 12.2287 23.4951L12.7001 23.0237L12.2287 22.5523C11.9684 22.292 11.9684 21.8699 12.2287 21.6095C12.4891 21.3492 12.9112 21.3492 13.1716 21.6095L13.643 22.0809L15.0572 20.6667L13.643 19.2525L13.1716 19.7239C12.9113 19.9841 12.4891 19.9841 12.2287 19.7239C11.9684 19.4635 11.9684 19.0414 12.2287 18.781L12.7001 18.3096L12.2287 17.8383C11.9684 17.5779 11.9683 17.1558 12.2287 16.8954C12.4891 16.6351 12.9112 16.6351 13.1716 16.8954L13.643 17.3668L14.1144 16.8954C14.3747 16.6351 14.7969 16.6351 15.0572 16.8954C15.3175 17.1557 15.3175 17.5779 15.0572 17.8383L14.5858 18.3096L16 19.7239L17.4142 18.3096L16.9428 17.8383C16.6825 17.5779 16.6825 17.1558 16.9428 16.8954C17.2031 16.6351 17.6253 16.6351 17.8856 16.8954L18.357 17.3668L18.8284 16.8954C19.0888 16.6351 19.5109 16.6352 19.7713 16.8954C20.0316 17.1558 20.0316 17.5779 19.7712 17.8383ZM32 6V10C32 10.9346 31.3555 11.7215 30.4877 11.9399L28.7771 30.1867C28.6801 31.2205 27.8241 32 26.7858 32H5.2142C4.17593 32 3.31987 31.2205 3.22287 30.1867L1.51227 11.9399C0.644467 11.7215 0 10.9346 0 10V6C0 4.8972 0.8972 4 2 4H4.66667V3.33333C4.66667 1.49533 6.162 0 8 0H24C25.838 0 27.3333 1.49533 27.3333 3.33333V4H30C31.1028 4 32 4.8972 32 6ZM6 4H26V3.33333C26 2.23053 25.1028 1.33333 24 1.33333H8C6.8972 1.33333 6 2.23053 6 3.33333V4ZM29.1429 12H21.2191C20.944 12.7761 20.2025 13.3333 19.3333 13.3333H12.6667C11.7975 13.3333 11.0561 12.7761 10.7809 12H2.85707L4.5504 30.0623C4.58267 30.4069 4.86807 30.6667 5.2142 30.6667H26.7858C27.1319 30.6667 27.4173 30.4069 27.4496 30.0623L29.1429 12ZM12.6667 12H19.3333C19.7009 12 20 11.7009 20 11.3333V9.33333C20 8.96573 19.7009 8.66667 19.3333 8.66667H12.6667C12.2991 8.66667 12 8.96573 12 9.33333V11.3333C12 11.7009 12.2991 12 12.6667 12ZM30.6667 6C30.6667 5.6324 30.3676 5.33333 30 5.33333H2C1.6324 5.33333 1.33333 5.6324 1.33333 6V10C1.33333 10.3676 1.6324 10.6667 2 10.6667H2.11807C2.12313 10.6667 2.12833 10.6667 2.1334 10.6667H10.6667V9.33333C10.6667 8.23053 11.5639 7.33333 12.6667 7.33333H19.3333C20.4361 7.33333 21.3333 8.23053 21.3333 9.33333V10.6667H29.8665C29.8716 10.6667 29.8767 10.6667 29.8819 10.6667H30C30.3676 10.6667 30.6667 10.3676 30.6667 10V6Z" fill="#13215A"/>
</g>
<defs>
<clipPath id="clip0_193_483">
<rect width="32" height="32" fill="white"/>
</clipPath>
</defs>
</svg>
