<svg width="48" height="49" viewBox="0 0 48 49" fill="none" xmlns="http://www.w3.org/2000/svg">
<path d="M40.7998 16.4998C40.7998 16.1567 40.7379 15.8279 40.625 15.5241L26.7558 24.1924H26.7558C25.0697 25.2462 22.93 25.2462 21.2438 24.1924H21.2438L7.37459 15.5241C7.26163 15.8279 7.1998 16.1567 7.1998 16.4998V32.4998C7.1998 34.0462 8.45341 35.2998 9.99982 35.2998H37.9998C39.5462 35.2998 40.7998 34.0462 40.7998 32.4998V16.4998ZM9.99982 13.6998C9.71438 13.6998 9.43891 13.7426 9.17945 13.822L22.5157 22.1572C23.4236 22.7246 24.5759 22.7246 25.4838 22.1572L38.8201 13.822C38.5607 13.7426 38.2852 13.6998 37.9998 13.6998H9.99982ZM43.1998 32.4998C43.1998 35.3717 40.8717 37.6998 37.9998 37.6998H9.99982C7.12795 37.6998 4.7998 35.3717 4.7998 32.4998V16.4998C4.7998 13.6279 7.12794 11.2998 9.99982 11.2998H37.9998C40.8717 11.2998 43.1998 13.628 43.1998 16.4998V32.4998Z" fill="#13215A"/>
</svg>
