<svg width="32" height="32" viewBox="0 0 32 32" fill="none" xmlns="http://www.w3.org/2000/svg">
<path fill-rule="evenodd" clip-rule="evenodd" d="M15.9998 2.66699C23.3638 2.66699 29.3332 8.63633 29.3332 16.0003C29.3332 23.3643 23.3638 29.3337 15.9998 29.3337C8.63584 29.3337 2.6665 23.3643 2.6665 16.0003C2.6665 8.63633 8.63584 2.66699 15.9998 2.66699ZM19.0838 21.9123C18.1316 22.4086 17.0736 22.6675 15.9998 22.667C15.0434 22.6677 14.098 22.4626 13.2278 22.0657L12.9158 21.9123L10.0052 24.8243C11.7722 26.0284 13.8616 26.6707 15.9998 26.667C17.9976 26.6703 19.9558 26.1097 21.6492 25.0497L21.9958 24.823L19.0838 21.9123ZM7.17717 10.0057C5.97264 11.7725 5.3299 13.862 5.33317 16.0003C5.33317 18.223 6.01317 20.287 7.17584 21.995L10.0878 19.0843C9.59159 18.1321 9.33269 17.0741 9.33317 16.0003C9.33317 14.887 9.60517 13.839 10.0878 12.9163L7.17717 10.0057ZM24.8238 10.0057L21.9118 12.9163C22.3945 13.839 22.6665 14.8883 22.6665 16.0003C22.6665 17.1123 22.3945 18.1617 21.9118 19.0843L24.8238 21.995C26.0279 20.228 26.6702 18.1385 26.6665 16.0003C26.6665 13.7777 25.9865 11.7137 24.8238 10.0057ZM15.9998 12.0003C14.939 12.0003 13.9216 12.4218 13.1714 13.1719C12.4213 13.922 11.9998 14.9395 11.9998 16.0003C11.9998 17.0612 12.4213 18.0786 13.1714 18.8288C13.9216 19.5789 14.939 20.0003 15.9998 20.0003C17.0607 20.0003 18.0781 19.5789 18.8283 18.8288C19.5784 18.0786 19.9998 17.0612 19.9998 16.0003C19.9998 14.9395 19.5784 13.922 18.8283 13.1719C18.0781 12.4218 17.0607 12.0003 15.9998 12.0003ZM15.9998 5.33366C14.002 5.33032 12.0439 5.89092 10.3505 6.95099L10.0038 7.17766L12.9158 10.0883C13.8681 9.59208 14.9261 9.33318 15.9998 9.33366C16.9892 9.33366 17.9278 9.54966 18.7718 9.93499L19.0838 10.0883L21.9945 7.17633C20.2275 5.97227 18.1381 5.33 15.9998 5.33366Z" fill="#FFDB91"/>
</svg>
