<svg width="32" height="33" viewBox="0 0 32 33" fill="none" xmlns="http://www.w3.org/2000/svg">
<path d="M15.9998 27.4168C23.3638 27.4168 29.3332 22.6415 29.3332 16.7502C29.3332 10.8588 23.3638 6.0835 15.9998 6.0835C8.63584 6.0835 2.6665 10.8588 2.6665 16.7502C2.6665 22.6415 8.63584 27.4168 15.9998 27.4168Z" stroke="#4CA0C6" stroke-width="2" stroke-linejoin="round"/>
<path d="M15.9997 19.417C19.6817 19.417 22.6663 17.6263 22.6663 15.417C22.6663 13.2077 19.6817 11.417 15.9997 11.417C12.3177 11.417 9.33301 13.2077 9.33301 15.417C9.33301 17.6263 12.3177 19.417 15.9997 19.417Z" stroke="#4CA0C6" stroke-width="2" stroke-linejoin="round"/>
<path d="M16 11.4168V6.0835M21.3333 12.7502C21.3333 12.7502 23.0833 10.0835 26 10.0835M10.6667 12.7502C10.6667 12.7502 9.33333 10.0835 6 10.0835M12 18.7502C12 18.7502 8 20.0835 7.33333 24.7502M20 18.7502C20 18.7502 24.3333 20.0835 24.6667 24.7502" stroke="#4CA0C6" stroke-width="2" stroke-linecap="round" stroke-linejoin="round"/>
</svg>
