<svg width="32" height="33" viewBox="0 0 32 33" fill="none" xmlns="http://www.w3.org/2000/svg">
<path d="M30.5123 16.0789C30.4011 15.8834 30.2521 15.7119 30.0739 15.5746C29.8958 15.4372 29.6921 15.3367 29.4748 15.2789C28.4888 15.0267 27.4675 14.9422 26.4535 15.0289C27.0373 12.4501 26.656 10.4151 26.2723 9.22887C26.1383 8.80981 25.8532 8.45564 25.4723 8.23541C25.0915 8.01518 24.6423 7.94466 24.2123 8.03762C22.8776 8.33695 21.614 8.89358 20.4923 9.67637C19.7116 7.97811 18.5313 6.49415 17.0523 5.35137C16.7488 5.1227 16.3791 4.99902 15.9991 4.99902C15.6192 4.99902 15.2495 5.1227 14.946 5.35137C13.4678 6.49466 12.288 7.97851 11.5073 9.67637C10.3852 8.89343 9.12116 8.3368 7.78601 8.03762C7.35601 7.94478 6.90684 8.01551 6.52618 8.236C6.14551 8.45649 5.86068 8.81093 5.72726 9.23012C5.34351 10.4164 4.96226 12.4514 5.54601 15.0301C4.53204 14.9435 3.51071 15.028 2.52476 15.2801C2.3074 15.338 2.10372 15.4385 1.9256 15.5758C1.74747 15.7132 1.59847 15.8846 1.48726 16.0801C1.37039 16.2811 1.29473 16.5033 1.26468 16.7338C1.23463 16.9643 1.25081 17.1984 1.31226 17.4226C1.72601 18.9576 2.99976 21.8751 6.86476 24.1889C10.7298 26.5026 14.161 26.5001 15.9998 26.5001C17.8385 26.5001 21.2648 26.5001 25.1323 24.1889C28.9998 21.8776 30.271 18.9576 30.6848 17.4214C30.7466 17.1974 30.7632 16.9633 30.7336 16.7328C30.7039 16.5023 30.6287 16.28 30.5123 16.0789ZM21.0598 11.1126C22.0889 10.3366 23.2706 9.78704 24.5273 9.50012C24.594 9.4865 24.6634 9.49814 24.7221 9.53278C24.7808 9.56742 24.8245 9.62259 24.8448 9.68762C25.3373 11.2151 25.821 14.3751 23.521 18.3751C22.5977 19.9528 21.4143 21.363 20.021 22.5464C20.981 20.8751 21.7498 18.6164 21.7498 15.6464C21.7615 14.1081 21.5286 12.5778 21.0598 11.1126ZM7.15476 9.69137C7.17432 9.62565 7.21772 9.5696 7.27645 9.53422C7.33519 9.49884 7.40503 9.48668 7.47226 9.50012C8.72889 9.78704 9.9106 10.3366 10.9398 11.1126C10.4709 12.5778 10.238 14.1081 10.2498 15.6464C10.2498 18.6164 11.0185 20.8776 11.976 22.5426C10.5824 21.3596 9.39898 19.9493 8.47601 18.3714C6.17851 14.3751 6.66226 11.2151 7.15476 9.69137ZM7.63476 22.9001C4.22226 20.8614 3.11601 18.3476 2.75976 17.0251C2.75042 16.9915 2.74793 16.9564 2.75244 16.9218C2.75695 16.8873 2.76837 16.8539 2.78601 16.8239C2.81305 16.7755 2.85791 16.7396 2.91101 16.7239C3.92126 16.473 4.97161 16.4275 5.99976 16.5901C6.31676 17.4684 6.71123 18.3167 7.17851 19.1251C8.46098 21.3383 10.2098 23.2458 12.3035 24.7151C10.6529 24.3885 9.07257 23.7742 7.63476 22.9001ZM15.9998 24.8576C14.9148 24.0826 11.7498 21.3326 11.7498 15.6464C11.7498 10.2264 14.6173 7.47887 15.8498 6.54887C15.893 6.51642 15.9457 6.49887 15.9998 6.49887C16.0539 6.49887 16.1065 6.51642 16.1498 6.54887C17.3823 7.47887 20.2498 10.2264 20.2498 15.6464C20.2498 21.3676 17.101 24.0839 15.9998 24.8576ZM29.2373 17.0301C28.881 18.3476 27.7748 20.8614 24.3623 22.9051C22.9229 23.7774 21.3413 24.3896 19.6898 24.7139C21.7835 23.2445 23.5323 21.337 24.8148 19.1239C25.2841 18.3161 25.6807 17.4682 25.9998 16.5901C27.0291 16.4288 28.0803 16.476 29.091 16.7289C29.1441 16.7446 29.189 16.7805 29.216 16.8289C29.2332 16.8591 29.2442 16.8925 29.2483 16.9271C29.2524 16.9617 29.2495 16.9967 29.2398 17.0301H29.2373Z" fill="#13215A"/>
</svg>
