<svg width="32" height="32" viewBox="0 0 32 32" fill="none" xmlns="http://www.w3.org/2000/svg">
<path d="M16 1.05005C8.97 1.05005 3.25 6.77005 3.25 13.8001C3.25 14.0751 3.475 14.3001 3.75 14.3001H10.345H15.5V30.4501C15.5 30.7251 15.725 30.9501 16 30.9501C16.275 30.9501 16.5 30.7251 16.5 30.4501V14.3001H21.655H28.25C28.525 14.3001 28.75 14.0751 28.75 13.8001C28.75 6.77005 23.03 1.05005 16 1.05005ZM13.22 2.38505C11.27 4.38505 9.94 8.46005 9.855 13.3001H4.26C4.485 8.00005 8.235 3.60005 13.22 2.38505ZM10.85 13.3001C10.97 7.15005 13.28 2.05005 16 2.05005C18.72 2.05005 21.03 7.15005 21.15 13.3001H10.85ZM22.145 13.3001C22.06 8.45505 20.73 4.38505 18.78 2.38505C23.765 3.60005 27.515 8.00005 27.74 13.3001H22.145Z" fill="#4CA0C6"/>
</svg>
