<svg width="32" height="33" viewBox="0 0 32 33" fill="none" xmlns="http://www.w3.org/2000/svg">
<g clip-path="url(#clip0_195_1909)">
<path d="M28.2432 6.79029C25.8166 4.36371 22.5903 3.02734 19.1586 3.02734C15.7269 3.02734 12.5006 4.36371 10.074 6.79036C5.93245 10.9318 5.13957 17.3273 8.04173 22.3197L3.32542 27.036C2.03736 28.3241 2.03736 30.4199 3.32542 31.7081C3.94937 32.3321 4.77896 32.6757 5.6614 32.6757C6.54385 32.6757 7.37343 32.3321 7.99746 31.7081L12.7138 26.9918C14.6654 28.1263 16.8756 28.7219 19.1597 28.722C19.1599 28.722 19.1597 28.722 19.1599 28.722C22.5909 28.722 25.817 27.3858 28.2432 24.9595C33.2525 19.9503 33.2525 11.7995 28.2432 6.79029ZM13.1764 24.6816L12.4226 24.1684L6.44019 30.1507C6.23213 30.3587 5.95558 30.4733 5.66148 30.4733C5.3673 30.4733 5.09082 30.3587 4.88291 30.1508C4.45351 29.7214 4.45351 29.0228 4.88284 28.5934L10.8653 22.6109L10.3519 21.8572C9.3897 20.4445 8.81104 18.867 8.60203 17.258L17.7723 26.4282C16.1259 26.2146 14.5579 25.6225 13.1764 24.6816ZM26.6858 23.4022C25.0786 25.0093 23.0478 26.0384 20.8455 26.3868L8.64799 14.1894C8.99348 12.037 9.99816 9.98089 11.6313 8.34771C13.6419 6.33717 16.3151 5.22978 19.1585 5.22978C22.002 5.22978 24.6752 6.33703 26.6858 8.34763C30.8364 12.4982 30.8364 19.2516 26.6858 23.4022Z" fill="#F1731F"/>
<path d="M8.80976 5.22959C8.80976 2.80074 6.83373 0.824707 4.40488 0.824707C1.97603 0.824707 0 2.80074 0 5.22959C0 7.65844 1.97603 9.63447 4.40488 9.63447C6.83373 9.63447 8.80976 7.65844 8.80976 5.22959ZM2.20244 5.22959C2.20244 4.01524 3.19046 3.02715 4.40488 3.02715C5.61931 3.02715 6.60732 4.01524 6.60732 5.22959C6.60732 6.44409 5.61931 7.43203 4.40488 7.43203C3.19046 7.43203 2.20244 6.44409 2.20244 5.22959Z" fill="#F1731F"/>
</g>
<defs>
<clipPath id="clip0_195_1909">
<rect width="32" height="32" fill="white" transform="translate(0 0.75)"/>
</clipPath>
</defs>
</svg>
