<svg width="48" height="48" viewBox="0 0 48 48" fill="none" xmlns="http://www.w3.org/2000/svg">
<path fill-rule="evenodd" clip-rule="evenodd" d="M4 12C4 7.58172 7.58172 4 12 4H36C40.4182 4 44 7.58172 44 12V36C44 40.4182 40.4182 44 36 44H12C7.58172 44 4 40.4182 4 36V12ZM12 8C9.79086 8 8 9.79086 8 12V36C8 38.2092 9.79086 40 12 40H36C38.2092 40 40 38.2092 40 36V12C40 9.79086 38.2092 8 36 8H12ZM24 18C20.6862 18 18 20.6862 18 24C18 27.3138 20.6862 30 24 30C27.3138 30 30 27.3138 30 24C30 20.6862 27.3138 18 24 18ZM14 24C14 18.4772 18.4772 14 24 14C29.5228 14 34 18.4772 34 24C34 29.5228 29.5228 34 24 34C18.4772 34 14 29.5228 14 24ZM35 16C36.6568 16 38 14.6569 38 13C38 11.3431 36.6568 10 35 10C33.3432 10 32 11.3431 32 13C32 14.6569 33.3432 16 35 16Z" fill="#F1731F"/>
</svg>
