<svg width="32" height="32" viewBox="0 0 32 32" fill="none" xmlns="http://www.w3.org/2000/svg">
<path d="M21.8266 17.0533C21.6637 16.9885 21.4897 16.9565 21.3145 16.9589C21.1393 16.9614 20.9662 16.9983 20.8053 17.0677C20.6443 17.137 20.4986 17.2374 20.3764 17.363C20.2543 17.4887 20.158 17.6372 20.0933 17.8C20.0285 17.9628 19.9964 18.1368 19.9989 18.3121C20.0013 18.4873 20.0383 18.6604 20.1076 18.8213C20.1769 18.9823 20.2773 19.128 20.4029 19.2502C20.5286 19.3723 20.6771 19.4685 20.8399 19.5333C22.7866 20.3067 23.9999 21.5067 23.9999 22.6667C23.9999 24.56 20.7199 26.6667 15.9999 26.6667C11.2799 26.6667 7.99992 24.56 7.99992 22.6667C7.99992 21.5067 9.21325 20.3067 11.1599 19.5333C11.4888 19.4025 11.7522 19.1464 11.8922 18.8213C12.0323 18.4962 12.0374 18.1289 11.9066 17.8C11.7757 17.4711 11.5196 17.2077 11.1946 17.0677C10.8695 16.9277 10.5021 16.9225 10.1733 17.0533C7.14659 18.2533 5.33325 20.3467 5.33325 22.6667C5.33325 26.4 10.0133 29.3333 15.9999 29.3333C21.9866 29.3333 26.6666 26.4 26.6666 22.6667C26.6666 20.3467 24.8533 18.2533 21.8266 17.0533ZM14.6666 13.1467V22.6667C14.6666 23.0203 14.8071 23.3594 15.0571 23.6095C15.3072 23.8595 15.6463 24 15.9999 24C16.3535 24 16.6927 23.8595 16.9427 23.6095C17.1928 23.3594 17.3333 23.0203 17.3333 22.6667V13.1467C18.5901 12.8221 19.6855 12.0504 20.4141 10.976C21.1426 9.90162 21.4543 8.59842 21.2907 7.31066C21.1272 6.02291 20.4996 4.83902 19.5256 3.9809C18.5516 3.12278 17.298 2.64935 15.9999 2.64935C14.7018 2.64935 13.4483 3.12278 12.4743 3.9809C11.5003 4.83902 10.8727 6.02291 10.7091 7.31066C10.5455 8.59842 10.8572 9.90162 11.5858 10.976C12.3143 12.0504 13.4097 12.8221 14.6666 13.1467ZM15.9999 5.33333C16.5273 5.33333 17.0429 5.48973 17.4814 5.78275C17.92 6.07576 18.2618 6.49224 18.4636 6.97951C18.6654 7.46678 18.7182 8.00296 18.6153 8.52024C18.5125 9.03752 18.2585 9.51268 17.8855 9.88562C17.5126 10.2586 17.0374 10.5125 16.5202 10.6154C16.0029 10.7183 15.4667 10.6655 14.9794 10.4637C14.4922 10.2618 14.0757 9.92005 13.7827 9.48152C13.4896 9.04299 13.3333 8.52741 13.3333 8C13.3333 7.29275 13.6142 6.61448 14.1143 6.11438C14.6144 5.61428 15.2927 5.33333 15.9999 5.33333Z" fill="#4CA0C6"/>
</svg>
