<svg width="48" height="48" viewBox="0 0 48 48" fill="none" xmlns="http://www.w3.org/2000/svg">
<path fill-rule="evenodd" clip-rule="evenodd" d="M36.8055 26.733C36.57 26.8875 36.303 27 36 27H9C8.172 27 7.5 26.3295 7.5 25.5V13.5C7.5 12.672 8.172 12 9 12H36C36.3195 12 36.5985 12.1215 36.8415 12.291L40.4445 19.476L36.8055 26.733ZM25.5 42C25.5 43.656 24.156 45 22.5 45H19.5C17.844 45 16.5 43.656 16.5 42V30H25.5V42ZM16.5 6C16.5 4.344 17.844 3 19.5 3H22.5C24.156 3 25.5 4.344 25.5 6V9H16.5V6ZM43.0755 18.336L38.6055 9.42302C38.286 9.10352 37.8615 8.973 37.443 9H28.5V6C28.5 2.6865 25.8135 0 22.5 0H19.5C16.1865 0 13.5 2.6865 13.5 6V9H7.5C5.844 9 4.5 10.344 4.5 12V27C4.5 28.656 5.844 30 7.5 30H13.5V42C13.5 45.3135 16.1865 48 19.5 48H22.5C25.8135 48 28.5 45.3135 28.5 42V30H37.5V29.964C37.899 29.973 38.301 29.835 38.6055 29.532L43.0755 20.6175C43.413 19.9875 43.458 19.782 43.503 19.476C43.524 19.0665 43.3905 18.906 43.0755 18.336Z" fill="#4CA0C6"/>
</svg>
