<svg width="48" height="48" viewBox="0 0 48 48" fill="none" xmlns="http://www.w3.org/2000/svg">
<path d="M25.8048 3.89125C25.8648 3.23124 26.4485 2.74481 27.1085 2.80481L27.007 3.92213C27.1086 2.80482 27.1092 2.80486 27.1099 2.80493C27.1102 2.80495 27.1109 2.80505 27.1114 2.8051C27.1125 2.8052 27.1136 2.80528 27.1147 2.80539C27.1171 2.80562 27.1198 2.80586 27.1227 2.80616C27.1286 2.80674 27.1356 2.80749 27.1437 2.80838C27.16 2.81016 27.1808 2.8126 27.206 2.81582C27.2564 2.82227 27.3245 2.83192 27.4093 2.84606C27.579 2.87434 27.8158 2.92055 28.1129 2.99483C28.7074 3.14345 29.5424 3.40421 30.5632 3.85791C32.6077 4.76657 35.3816 6.44187 38.455 9.51532C41.5284 12.5888 43.2037 15.3627 44.1124 17.4072C44.5661 18.428 44.8269 19.2629 44.9755 19.8574C45.0498 20.1545 45.0961 20.3914 45.1243 20.5611C45.1385 20.6459 45.1481 20.7139 45.1546 20.7643C45.1578 20.7895 45.1602 20.8103 45.162 20.8266C45.1629 20.8347 45.1636 20.8418 45.1642 20.8476C45.1645 20.8506 45.1647 20.8532 45.1649 20.8556C45.1651 20.8568 45.1652 20.8579 45.1653 20.8589C45.1653 20.8594 45.1654 20.8602 45.1654 20.8604C45.1655 20.8611 45.1656 20.8618 44.0383 20.9643L45.1655 20.8618C45.2255 21.5218 44.7392 22.1055 44.0791 22.1655C43.4195 22.2255 42.8362 21.7398 42.7756 21.0804V21.0804C42.7756 21.0806 42.7756 21.0812 42.7757 21.0816C42.7757 21.0824 42.7758 21.0831 42.7758 21.0837C42.776 21.0849 42.7761 21.0859 42.7761 21.0865C42.7762 21.0868 42.7762 21.087 42.7762 21.0872C42.776 21.0855 42.7753 21.0793 42.774 21.0689C42.7713 21.048 42.766 21.01 42.757 20.9557C42.7389 20.847 42.7055 20.6727 42.6472 20.4395C42.5307 19.9734 42.3141 19.2703 41.9193 18.382C41.1308 16.6081 39.6242 14.0786 36.758 11.2124C33.8918 8.34614 31.3624 6.83948 29.5885 6.05108C28.7001 5.65625 27.997 5.43971 27.5309 5.32317C27.2977 5.26487 27.1235 5.23149 27.0148 5.21336C26.9604 5.2043 26.9224 5.1991 26.9015 5.19643C26.8911 5.1951 26.885 5.1944 26.8832 5.1942C26.8834 5.19422 26.8836 5.19424 26.8839 5.19426C26.8845 5.19433 26.8855 5.19444 26.8867 5.19455C26.8874 5.19461 26.888 5.19466 26.8888 5.19473C26.8892 5.19477 26.8898 5.19483 26.89 5.19485L26.89 5.19479C26.2306 5.13418 25.7449 4.55086 25.8048 3.89125Z" fill="#FFDB91"/>
<path d="M27.2603 10.7417C27.4424 10.1045 28.1066 9.73551 28.7438 9.91757L28.4315 11.0108C28.7439 9.91758 28.7444 9.91776 28.745 9.91792C28.7452 9.91798 28.7458 9.9181 28.7462 9.91821C28.747 9.91844 28.7478 9.91873 28.7487 9.91898C28.7504 9.91947 28.7522 9.91998 28.7542 9.92056C28.7581 9.92172 28.7626 9.92306 28.7675 9.92454C28.7773 9.92751 28.789 9.93116 28.8026 9.9355C28.8298 9.94419 28.8645 9.95573 28.9064 9.9706C28.9902 10.0003 29.103 10.0433 29.2426 10.1032C29.5221 10.223 29.9087 10.41 30.3866 10.6928C31.343 11.2588 32.6596 12.2055 34.2125 13.7584C35.7654 15.3113 36.7121 16.628 37.2781 17.5843C37.5609 18.0622 37.7479 18.4487 37.8677 18.7282C37.9276 18.8679 37.9706 18.9806 38.0003 19.0645C38.0152 19.1064 38.0268 19.1411 38.0355 19.1682C38.0398 19.1818 38.0434 19.1935 38.0464 19.2033C38.0479 19.2082 38.0492 19.2126 38.0504 19.2166C38.051 19.2185 38.0515 19.2204 38.052 19.2221C38.0522 19.223 38.0525 19.2239 38.0527 19.2247C38.0528 19.2251 38.053 19.2256 38.0531 19.2258C38.0532 19.2264 38.0504 19.2277 36.9573 19.5401L38.0534 19.2269C38.2355 19.8642 37.8665 20.5284 37.2293 20.7105C36.5924 20.8925 35.9286 20.5241 35.7461 19.8875C35.7461 19.8876 35.7463 19.8882 35.7464 19.8886C35.7466 19.8893 35.7468 19.8899 35.7469 19.8905C35.7473 19.8918 35.7476 19.8929 35.7479 19.8939C35.7485 19.8959 35.749 19.8975 35.7493 19.8985C35.7494 19.8988 35.7495 19.899 35.7495 19.8992C35.7485 19.896 35.745 19.8852 35.7386 19.8671C35.7258 19.8311 35.7014 19.766 35.6618 19.6737C35.5827 19.4891 35.4426 19.1951 35.2127 18.8067C34.7534 18.0307 33.9323 16.8724 32.5154 15.4554C31.0986 14.0386 29.9403 13.2175 29.1642 12.7582C28.7759 12.5284 28.4818 12.3883 28.2973 12.3092C28.2049 12.2696 28.1398 12.2452 28.1037 12.2324L28.0724 12.2217C28.0735 12.222 28.075 12.2225 28.077 12.2231C28.078 12.2234 28.0792 12.2237 28.0804 12.2241C28.081 12.2242 28.0817 12.2244 28.0824 12.2246C28.0827 12.2247 28.0832 12.2249 28.0834 12.2249L28.0835 12.2249C27.4469 12.0424 27.0784 11.3786 27.2603 10.7417Z" fill="#FFDB91"/>
<path d="M31.2891 31.0869L32.2001 30.1279L30.0249 28.0619L29.1139 29.0209L31.2891 31.0869ZM35.1975 29.7241L39.0185 31.9235L40.5151 29.3235L36.6941 27.1241L35.1975 29.7241ZM39.7559 36.4833L36.9147 39.4745L39.0899 41.5405L41.9311 38.5493L39.7559 36.4833ZM35.2053 40.4329C32.3353 40.7163 24.8467 40.4745 16.7184 31.9169L14.5432 33.9829C23.4019 43.3095 31.8523 43.7785 35.4999 43.4185L35.2053 40.4329ZM16.7184 31.9169C8.96613 23.7551 7.66577 16.8707 7.50369 13.851L4.50801 14.0118C4.70651 17.7103 6.27687 25.2801 14.5432 33.9829L16.7184 31.9169ZM19.4691 18.6427L20.0427 18.0388L17.8675 15.9727L17.2939 16.5767L19.4691 18.6427ZM20.4933 10.5198L17.9714 6.95281L15.5218 8.68475L18.0438 12.2517L20.4933 10.5198ZM9.43539 6.18381L6.29619 9.48879L8.47135 11.5548L11.6106 8.24987L9.43539 6.18381ZM18.3815 17.6097C17.2939 16.5767 17.2925 16.5781 17.2911 16.5796C17.2906 16.5801 17.2892 16.5816 17.2883 16.5826C17.2864 16.5846 17.2844 16.5867 17.2825 16.5888C17.2785 16.593 17.2745 16.5975 17.2703 16.6021C17.2619 16.6113 17.253 16.6213 17.2436 16.632C17.2249 16.6536 17.2044 16.6782 17.1824 16.7059C17.1384 16.7615 17.0887 16.8298 17.0365 16.9113C16.9319 17.0748 16.8184 17.2902 16.7223 17.5602C16.5269 18.1093 16.4204 18.8365 16.5535 19.7447C16.8149 21.5289 17.984 23.9283 21.0387 27.1443L23.2139 25.0783C20.3587 22.0721 19.6553 20.2207 19.5218 19.3098C19.4574 18.8703 19.5228 18.6387 19.5487 18.566C19.5632 18.5251 19.5728 18.5137 19.5634 18.5283C19.5589 18.5353 19.55 18.5486 19.5348 18.5677C19.5273 18.5772 19.5182 18.5883 19.5073 18.6008C19.5018 18.607 19.4959 18.6137 19.4896 18.6207C19.4864 18.6242 19.4831 18.6277 19.4797 18.6314C19.478 18.6333 19.4763 18.6351 19.4745 18.637C19.4736 18.6379 19.4722 18.6394 19.4718 18.6398C19.4704 18.6413 19.4691 18.6427 18.3815 17.6097ZM21.0387 27.1443C24.0845 30.3509 26.3847 31.6115 28.1397 31.8965C29.0403 32.0427 29.7693 31.9259 30.3213 31.7083C30.5911 31.6019 30.8045 31.4769 30.9647 31.3633C31.0447 31.3065 31.1113 31.2527 31.1649 31.2057C31.1919 31.1821 31.2155 31.1601 31.2361 31.1401C31.2465 31.1303 31.2561 31.1207 31.2649 31.1119C31.2693 31.1075 31.2735 31.1031 31.2775 31.0989C31.2795 31.0969 31.2815 31.0949 31.2835 31.0929C31.2845 31.0919 31.2859 31.0903 31.2863 31.0899C31.2877 31.0883 31.2891 31.0869 30.2015 30.0539C29.1139 29.0209 29.1153 29.0195 29.1167 29.0181C29.1171 29.0175 29.1185 29.0161 29.1193 29.0151C29.1211 29.0133 29.1229 29.0115 29.1247 29.0097C29.1283 29.0061 29.1317 29.0025 29.1349 28.9991C29.1417 28.9925 29.1481 28.9861 29.1541 28.9803C29.1661 28.9687 29.1771 28.9587 29.1867 28.9503C29.2057 28.9335 29.2199 28.9227 29.2291 28.9163C29.2479 28.9029 29.2459 28.9075 29.2205 28.9175C29.1819 28.9327 29.0001 28.9969 28.6207 28.9353C27.8155 28.8045 26.0783 28.0939 23.2139 25.0783L21.0387 27.1443ZM17.9714 6.95281C15.9442 4.08565 11.8877 3.60193 9.43539 6.18381L11.6106 8.24987C12.6562 7.14897 14.4971 7.23545 15.5218 8.68475L17.9714 6.95281ZM7.50369 13.851C7.46083 13.0524 7.80857 12.2526 8.47135 11.5548L6.29619 9.48879C5.22449 10.6171 4.40993 12.1845 4.50801 14.0118L7.50369 13.851ZM36.9147 39.4745C36.3567 40.0621 35.7729 40.3769 35.2053 40.4329L35.4999 43.4185C36.9941 43.2709 38.2033 42.4741 39.0899 41.5405L36.9147 39.4745ZM20.0427 18.0388C21.9779 16.0014 22.1149 12.8131 20.4933 10.5198L18.0438 12.2517C18.888 13.4458 18.7586 15.0346 17.8675 15.9727L20.0427 18.0388ZM39.0185 31.9235C40.6601 32.8685 40.9815 35.1931 39.7559 36.4833L41.9311 38.5493C44.5409 35.8015 43.7809 31.2033 40.5151 29.3235L39.0185 31.9235ZM32.2001 30.1279C32.9709 29.3163 34.1721 29.1339 35.1975 29.7241L36.6941 27.1241C34.4971 25.8595 31.7723 26.2221 30.0249 28.0619L32.2001 30.1279Z" fill="#FFDB91"/>
</svg>
