<svg width="32" height="32" viewBox="0 0 32 32" fill="none" xmlns="http://www.w3.org/2000/svg">
<path d="M19.2 16C19.2 14.2326 17.7673 12.8 16 12.8C14.2326 12.8 12.8 14.2326 12.8 16C12.8 17.7673 14.2326 19.2 16 19.2C17.7673 19.2 19.2 17.7673 19.2 16ZM20.8 16C20.8 18.651 18.651 20.8 16 20.8C13.3489 20.8 11.2 18.651 11.2 16C11.2 13.3489 13.3489 11.2 16 11.2C18.651 11.2 20.8 13.3489 20.8 16Z" fill="#13215A"/>
<path d="M27.2001 15.8218C27.2001 15.1008 27.1911 14.9172 27.1432 14.7675L27.1432 14.7674C27.0929 14.6098 27.0105 14.4643 26.9012 14.3399C26.7971 14.2217 26.6461 14.1205 26.035 13.7539L25.6644 13.5316L25.6644 13.5316C24.5156 12.8423 24.0366 11.421 24.5344 10.177C24.7771 9.5701 24.8325 9.41179 24.847 9.27185C24.8723 9.02683 24.8216 8.77998 24.7019 8.56486C24.6334 8.4418 24.5199 8.31787 24.0579 7.85595C23.6235 7.42154 23.5074 7.31472 23.3915 7.24802L23.3724 7.23728C23.1744 7.1282 22.9495 7.07713 22.7234 7.09028C22.5899 7.09807 22.4385 7.14165 21.8555 7.33599L21.8554 7.33595L21.095 7.5895C19.8461 8.0058 18.489 7.37647 18.0001 6.15411C17.7664 5.56975 17.6892 5.39497 17.6073 5.28204L17.5909 5.26017C17.436 5.06253 17.2231 4.91841 16.9821 4.8481C16.8439 4.80777 16.6714 4.80005 16.0001 4.80005C15.3288 4.80005 15.1563 4.80777 15.0181 4.8481C14.7771 4.91841 14.5642 5.06253 14.4094 5.26017C14.3206 5.37347 14.2494 5.53076 14.0001 6.15407C13.5112 7.37639 12.1543 8.00587 10.9053 7.5897L10.1443 7.33611L10.1442 7.33607C9.59757 7.15387 9.43033 7.10422 9.30156 7.09232L9.27621 7.09044C9.05025 7.07727 8.8253 7.1283 8.6273 7.23739L8.60824 7.2481C8.4923 7.31477 8.37633 7.42141 7.94175 7.85599C7.47964 8.3181 7.36622 8.44194 7.29777 8.56493C7.18176 8.77336 7.13057 9.01152 7.1505 9.24888L7.15265 9.27185C7.16712 9.41186 7.2226 9.5704 7.46531 10.1772C7.9629 11.4211 7.4842 12.8423 6.33538 13.5318L5.96538 13.7538L5.96531 13.7539C5.35352 14.1209 5.20289 14.2218 5.09894 14.3401C4.99656 14.4565 4.91774 14.5917 4.86679 14.738L4.85699 14.7674C4.80917 14.9172 4.80011 15.1008 4.80011 15.8218C4.80011 16.6767 4.81234 16.8953 4.87585 17.0656C4.94269 17.2447 5.05139 17.4052 5.19304 17.534L5.20585 17.5454C5.34045 17.6623 5.54787 17.7575 6.30871 18.0619L6.33519 18.0727C7.44459 18.5321 8.01687 19.7661 7.65109 20.9097L7.64222 20.9369L7.35535 21.7976C7.15413 22.4011 7.10003 22.5857 7.09031 22.7281L7.08894 22.7562C7.08242 22.9675 7.13179 23.1766 7.23206 23.3626L7.23218 23.3628C7.30229 23.4929 7.41909 23.6211 7.89906 24.101C8.37893 24.5808 8.50731 24.6978 8.63746 24.768C8.82359 24.8684 9.0328 24.9178 9.24382 24.9112H9.2439C9.39171 24.9066 9.55878 24.8594 10.2027 24.6448L10.9053 24.4106C12.1542 23.9944 13.5112 24.6236 14.0001 25.846L14.0856 26.0587C14.2674 26.5078 14.3317 26.6407 14.4093 26.7399L14.424 26.7583C14.5775 26.9465 14.7847 27.084 15.0181 27.1521C15.1564 27.1924 15.3291 27.2001 16.0001 27.2001C16.6711 27.2001 16.8438 27.1924 16.9821 27.1521L17.0046 27.1453C17.2363 27.0727 17.4409 26.9314 17.5909 26.7399C17.6797 26.6265 17.7509 26.4691 18.0001 25.846C18.489 24.6237 19.846 23.9943 21.0949 24.4109L21.7971 24.645C22.4405 24.8594 22.6078 24.9067 22.7555 24.9113C22.967 24.9178 23.1762 24.8684 23.3621 24.7682L23.3621 24.7682C23.4923 24.698 23.6208 24.5809 24.1005 24.1011C24.5803 23.6214 24.6974 23.4929 24.7676 23.3627L24.7676 23.3627C24.8678 23.1768 24.9172 22.9675 24.9107 22.7562C24.9061 22.6084 24.8588 22.441 24.6443 21.7975L24.3577 20.9376C23.9709 19.7771 24.5555 18.5162 25.6914 18.062L25.8319 18.0056C26.5011 17.7362 26.681 17.6487 26.8073 17.534C26.9489 17.4052 27.0576 17.2446 27.1244 17.0656C27.1879 16.8953 27.2001 16.6766 27.2001 15.8218ZM28.8001 15.8218C28.8001 16.5471 28.8123 17.1184 28.6235 17.6246L28.6235 17.6247C28.4674 18.0432 28.2135 18.4179 27.8833 18.7181L27.883 18.7184C27.4834 19.0814 26.9527 19.2806 26.2857 19.5475L26.2855 19.5475C25.9419 19.685 25.7623 20.0627 25.8702 20.4148L25.8756 20.4316L26.1623 21.2916C26.3393 21.8228 26.4869 22.2422 26.5083 22.6659L26.51 22.7069V22.7071C26.5251 23.1997 26.41 23.688 26.1758 24.1222C25.9679 24.5077 25.6407 24.8238 25.2319 25.2326C24.8232 25.6413 24.5071 25.9685 24.1216 26.1765L24.1216 26.1764C23.6874 26.4106 23.1993 26.5257 22.7065 26.5106H22.7063C22.2685 26.497 21.8394 26.3456 21.291 26.1629L21.2909 26.1628L20.5888 25.9287H20.5887C20.1437 25.7802 19.66 26.0045 19.4857 26.4402C19.2737 26.9703 19.1142 27.3898 18.8505 27.7265L18.8504 27.7266C18.4893 28.1876 17.9926 28.5239 17.4303 28.688L17.4302 28.6881C17.0197 28.8077 16.5712 28.8001 16.0001 28.8001C15.429 28.8001 14.9805 28.8077 14.5701 28.6881L14.5699 28.688C14.0076 28.5239 13.5109 28.1876 13.1498 27.7266L13.1498 27.7265C12.886 27.3898 12.7265 26.9703 12.5145 26.4402C12.3403 26.0045 11.8566 25.7801 11.4113 25.9284L10.7087 26.1627L10.7086 26.1627C10.1603 26.3455 9.73126 26.4969 9.29343 26.5104L9.29347 26.5105C8.80031 26.5258 8.31207 26.4104 7.87808 26.1763L7.87804 26.1763C7.49247 25.9684 7.17643 25.6411 6.76777 25.2324C6.35924 24.8239 6.03175 24.5078 5.82378 24.122C5.58972 23.688 5.47447 23.1998 5.48968 22.7068L5.49136 22.6658C5.51269 22.242 5.66041 21.8226 5.83746 21.2916L6.12429 20.4309C6.24315 20.0744 6.06347 19.687 5.71464 19.5476L5.71453 19.5475C5.04746 19.2806 4.51681 19.0814 4.11718 18.7183L4.11703 18.7182C3.78672 18.418 3.53285 18.0432 3.37675 17.6248L3.37671 17.6247C3.18791 17.1184 3.20011 16.5471 3.20011 15.8218C3.20011 15.2081 3.19106 14.7245 3.33281 14.2807C3.45023 13.913 3.64244 13.5735 3.89738 13.2835C4.20494 12.9338 4.62087 12.6946 5.14214 12.3819L5.51206 12.1599C5.98014 11.879 6.17947 11.3046 5.98913 10.7956L5.97976 10.7714C5.77322 10.255 5.60408 9.85198 5.56113 9.4363L5.55613 9.38271C5.51113 8.84672 5.62147 8.30905 5.87398 7.83411L5.89968 7.78685C6.10291 7.42167 6.41718 7.11783 6.81038 6.72462C7.18057 6.35444 7.46698 6.05869 7.81066 5.86107C8.28326 5.58933 8.82497 5.46142 9.36925 5.49314L9.40632 5.49564C9.78939 5.52475 10.169 5.65778 10.65 5.81814L11.4111 6.07173C11.8564 6.22012 12.3402 5.99571 12.5145 5.55989C12.7265 5.02974 12.886 4.61027 13.1498 4.27353C13.511 3.81244 14.0077 3.47622 14.5699 3.31216C14.9805 3.19236 15.4291 3.20005 16.0001 3.20005C16.5712 3.20005 17.0198 3.19236 17.4303 3.31216C17.9926 3.47622 18.4892 3.81244 18.8504 4.27353C19.1142 4.61026 19.2737 5.02975 19.4857 5.55989C19.66 5.99561 20.1437 6.22002 20.589 6.07161L21.3495 5.8181C21.8462 5.65255 22.2346 5.51609 22.6303 5.49302H22.6304C23.1747 5.46133 23.7164 5.58918 24.189 5.86095L24.1891 5.86103C24.5326 6.05862 24.819 6.35429 25.1892 6.72446C25.5704 7.10558 25.877 7.40251 26.0805 7.75263L26.0999 7.78669C26.3794 8.28879 26.4975 8.86468 26.4385 9.43611C26.3956 9.85187 26.2263 10.2551 26.02 10.7712L26.0199 10.7713C25.814 11.2861 26.0121 11.8742 26.4875 12.1596L26.858 12.3818L26.8581 12.3819C27.3632 12.6849 27.7691 12.9187 28.0736 13.2509L28.1027 13.2834L28.103 13.2836C28.3577 13.5734 28.5499 13.9129 28.6674 14.2807C28.8091 14.7245 28.8001 15.2082 28.8001 15.8218Z" fill="#13215A"/>
</svg>
