<svg width="62" height="56" viewBox="0 0 62 56" fill="none" xmlns="http://www.w3.org/2000/svg">
<path fill-rule="evenodd" clip-rule="evenodd" d="M33.0229 3.39424C33.7188 3.82678 32.9853 4.09007 33.0229 4.7859C32.6656 4.63545 32.8349 3.5823 33.0229 3.39424ZM20.8741 4.95516H21.4007V5.82025C21.0622 5.70741 20.9305 5.35009 20.8741 4.95516ZM16.1914 5.29367C16.3794 5.91428 17.0188 6.08353 16.8872 7.02385C16.5487 6.55369 16.1726 6.12115 16.1914 5.29367ZM38.3827 5.9895C38.5144 6.08353 38.6648 6.17756 38.9093 6.15876C39.0221 7.32475 38.2887 8.96089 37.875 10.1457C37.5741 8.97969 38.7965 7.83251 38.4015 5.9895H38.3827ZM20.7049 8.92328C21.2314 9.84478 21.2314 11.2929 21.4007 12.5529C20.6672 11.669 20.9305 10.503 20.7049 8.92328ZM32.8349 9.11134C33.211 9.61911 32.6092 10.6158 32.8349 11.5373C32.2895 10.7475 32.6656 9.99523 32.8349 9.11134ZM28.848 9.44985C29.0736 9.58149 29.2805 11.1424 28.6787 11.0108C28.5847 10.3337 28.9796 10.1645 28.848 9.44985ZM22.0965 9.97643C22.3786 10.4466 22.4538 11.1236 22.435 11.8759C21.9273 11.6314 22.1341 10.6723 22.0965 9.97643ZM40.4702 10.1457C40.8275 10.2961 40.6583 11.3493 40.4702 11.5373C39.9813 11.2553 40.7147 10.7663 40.4702 10.1457ZM38.2135 11.7066C38.9093 11.8571 37.8185 13.6436 38.552 13.9633C37.48 14.0386 37.3296 15.0541 37.1603 16.0508C36.9535 15.1481 37.3484 13.3616 37.6869 12.4212C38.2135 12.6845 37.5364 13.1735 37.6869 13.6248C38.2887 13.418 38.063 12.3836 38.2135 11.7254V11.7066ZM22.435 12.5717C22.9616 13.2675 23.0556 14.2831 22.7735 15.3362C22.435 14.6404 22.3974 13.6248 22.435 12.5717ZM27.9829 15.6935C28.2838 16.3894 28.1897 17.9503 28.1521 18.458C27.8324 17.593 27.8888 16.5398 27.9829 15.6935ZM47.7482 15.6935C48.2184 16.2201 47.3345 16.8783 47.2217 17.4237C46.6575 16.7843 47.485 16.0696 47.7482 15.6935ZM57.1138 17.7622C56.6248 18.8342 55.6657 19.436 54.6878 20.019C55.4776 19.2479 55.7221 17.9315 57.1138 17.7622ZM17.9403 19.4924C18.2977 19.8309 18.5421 20.2823 18.4669 21.0533C17.9403 20.8841 18.1284 20.0002 17.9403 19.4924ZM58.8439 20.019C59.4081 20.3951 58.2609 20.8652 57.8096 21.2226C57.2078 21.7115 56.3991 22.2945 56.0794 22.7835C56.0794 21.6363 58.0729 20.9593 58.8439 20.019ZM34.3958 21.5799C34.6215 23.5169 34.0009 25.1907 33.8692 27.4662C33.4367 25.2283 34.0573 23.4417 34.3958 21.5799ZM35.7875 21.5799C36.5773 21.6363 35.9191 22.7459 35.7875 22.9715C35.5242 24.5513 35.7311 22.2005 35.7875 21.5799ZM26.61 22.2757C27.099 22.2945 26.9297 22.9904 26.9485 23.4793C26.6852 23.2348 26.5912 22.8023 26.61 22.2757ZM47.579 22.6142H48.2748C47.9739 23.3101 47.7482 24.0435 46.8832 24.1751C46.996 23.5357 47.5414 23.3289 47.579 22.6142ZM28.848 25.3787C29.6942 25.6796 28.6975 26.8832 29.0172 27.8048C28.7163 27.9928 28.9608 26.131 28.4906 25.9053C28.8668 25.9805 28.8292 25.6608 28.8292 25.3787H28.848ZM49.4784 25.5668C50.0802 25.9429 50.8701 26.131 51.0393 26.9585C50.5316 26.4695 49.5913 26.4319 49.4784 25.5668ZM49.1399 26.2438C49.1399 26.7516 48.6886 26.8268 48.6133 27.2782C48.0868 27.1653 48.7826 26.9021 48.6133 26.5823C48.5005 26.4131 48.2184 26.3943 48.2748 26.0558C48.8202 25.8677 48.7262 25.9805 49.1399 26.225V26.2438ZM30.7662 33.7099C31.0107 33.7475 31.1611 35.1392 30.5969 34.9135C30.5217 34.3681 30.9167 34.2929 30.7662 33.7099ZM33.3615 34.575C33.888 35.0075 33.1546 35.6282 33.3615 36.3052C33.023 36.0607 33.1546 34.8383 33.3615 34.575ZM28.848 36.3052C29.5062 36.1735 29.0736 37.1326 29.1865 37.5276C28.5847 37.4335 28.7539 36.6813 28.848 36.3052ZM28.1709 37.5088C28.5283 39.6151 28.3026 41.6462 28.0017 43.7525C28.453 44.2038 28.1333 43.4704 28.6975 43.5832C28.5659 44.3166 28.359 44.9937 28.1709 45.6707C27.5503 43.0378 27.9077 39.5587 28.1709 37.5276V37.5088ZM33.1922 41.1572C33.6436 41.7966 32.8349 42.6429 32.8537 43.4139C32.3271 42.6993 33.117 41.8342 33.1922 41.1572ZM35.449 41.1572C36.2388 41.5521 35.1293 42.8686 34.9224 43.4139C34.4898 42.7369 35.449 41.9659 35.449 41.1572ZM20.3663 42.53C21.9085 43.2071 22.3034 45.8587 24.184 45.6519C24.5978 46.517 24.8987 47.4761 25.5757 48.0779C24.8798 48.36 24.5413 46.7991 24.0148 46.3477C23.5446 46.2537 23.2813 45.9152 22.7923 45.8211C22.3034 44.4107 20.7049 44.1098 20.3663 42.53ZM29.9011 43.3951C30.108 43.3763 30.202 43.4327 30.2396 43.5644C29.525 44.8808 29.6942 47.0624 29.3745 48.7549V46.3289C28.9608 45.0877 29.6378 44.4295 29.9011 43.3763V43.3951ZM23.1309 44.091C23.7327 44.1286 24.0524 44.9937 23.8267 45.2946C23.3942 45.1065 22.7547 44.5423 23.1309 44.091ZM33.5307 44.091C33.8128 44.9561 33.2298 46.4417 32.4964 46.8555C32.8913 45.9904 33.211 45.0313 33.5307 44.091ZM44.2879 45.3134C44.7016 45.2381 44.664 45.6331 45.153 45.4826C44.7581 45.9528 44.664 46.7238 44.6264 47.5701C44.1186 47.1188 44.5324 46.8179 44.4572 46.0092C43.9682 45.8587 44.0058 46.2537 43.5921 46.1785C43.3664 45.4262 44.4195 45.9716 44.2879 45.3134ZM31.6313 46.1785C32.0638 46.2725 31.7817 48.1531 31.1047 48.2659C31.1611 47.4573 31.6313 47.0623 31.6313 46.1785ZM45.8488 46.3477C45.9805 47.1376 46.2625 48.5292 45.5103 48.943C45.8676 48.1155 45.6607 47.5137 45.8488 46.3477ZM26.61 46.517C26.9861 46.7614 26.7417 47.6453 27.1366 47.9086C26.7041 48.3788 26.61 47.0623 26.61 46.517ZM27.287 48.0779C27.6444 48.2283 27.8136 48.5857 27.8136 49.1122C27.3435 49.037 27.005 48.3788 27.287 48.0779ZM25.7261 48.7737C26.3091 48.36 26.6852 49.6576 27.1178 49.9773C27.4563 49.6388 27.9641 48.8677 28.1521 49.8081C28.5283 49.7893 28.2274 49.0746 28.3214 48.7737C28.5283 48.8677 28.7915 50.3722 29.0172 51.0305C28.5659 51.0305 28.7351 50.3911 28.4906 50.1654C27.3999 51.1621 26.3467 49.714 25.7261 48.7737ZM20.8741 52.2341C20.5544 52.1588 19.821 52.4785 20.009 51.8956C20.2535 51.6323 20.9117 51.7263 20.8741 52.2341ZM16.8872 7.1931C17.6018 7.04265 16.9812 8.26506 17.4138 8.3967C17.1317 8.77283 17.0376 7.53161 16.8872 7.1931ZM39.2478 7.88893C39.6427 8.20864 38.8905 11.1424 38.9093 10.1457C38.9093 9.48746 39.0221 9.01731 39.2478 7.88893ZM17.4138 8.92328C17.5454 8.92328 17.8275 10.2209 18.1096 10.6535C17.6582 10.2961 17.3385 9.80717 17.4138 8.92328ZM45.153 8.92328C45.6043 8.73521 45.0401 10.2209 44.8145 10.4842C44.3443 10.0517 45.341 9.63791 45.153 8.92328ZM51.0393 31.2839C51.5659 31.9985 51.4343 33.3338 50.8701 33.8792C50.3811 33.3714 51.4907 32.2806 50.8701 31.6224C48.1056 32.9012 46.8079 35.647 44.6264 37.5088C44.8145 36.0795 46.5823 35.3461 47.579 34.2177C47.7859 33.992 47.7482 33.6159 47.9175 33.3526C48.6133 32.3183 49.8357 31.6788 50.7008 30.9266C50.8325 30.7761 50.8889 30.5317 50.8701 30.2308C52.6567 29.6478 53.6158 28.2561 54.857 27.1089C54.4057 28.6134 52.0173 29.7042 51.0393 31.2651V31.2839ZM46.7139 37.8661C46.9396 37.0762 47.8047 36.3992 48.9706 35.4401C50.005 34.5938 51.1334 34.086 52.2617 33.1833C52.9764 32.6192 53.3149 31.8293 54.5185 31.6224C54.274 32.4875 53.2585 32.6944 52.6191 33.1833C51.7916 33.8039 51.1898 34.6878 50.3623 35.2708C49.1399 36.1359 47.6354 36.6249 46.7139 37.8661ZM44.2879 11.18C44.6076 11.3493 44.0246 12.0451 44.1186 12.5717C43.6297 12.252 44.1562 11.4621 44.2879 11.18ZM39.9437 13.0983C40.301 12.9666 39.9437 14.3019 39.6051 14.8284C39.3042 14.678 39.0033 14.5087 39.0786 13.9633C39.812 14.1138 39.6616 13.3804 39.9437 13.0983ZM44.1186 18.2888C44.2503 17.6306 43.1971 18.1759 43.4228 17.4237C45.2658 17.2921 44.8897 14.9601 45.6796 13.7941C45.7172 15.2046 44.7392 17.1228 44.1186 18.4769C43.9306 18.4392 44.0246 18.3076 44.1186 18.3076V18.2888ZM7.87899 15.5055C8.78169 16.2765 9.45872 17.2733 9.96649 18.458C9.04498 17.8186 8.25512 16.1261 7.87899 15.5055ZM28.848 16.2013C29.2993 17.6306 28.453 19.2667 28.3214 20.696C27.7008 20.5643 28.0769 19.436 27.9829 18.7966C29.0736 19.3796 28.4154 16.8595 28.848 16.2013ZM9.60917 16.5586C10.4366 16.9535 10.4178 18.1759 11.1701 18.6461C10.4743 18.8154 9.89126 17.3861 9.60917 16.5586ZM12.2044 21.2226C12.4301 20.8841 12.7686 21.6175 13.2388 21.2226C13.3704 21.7491 12.7686 21.5611 12.9003 22.0877C12.5241 21.956 12.6746 21.279 12.2044 21.2226ZM44.2879 22.2757C44.5512 22.445 44.0434 23.2912 43.9494 23.6674C43.4604 23.2724 44.3067 22.7647 44.2879 22.2757ZM55.0263 23.3101C55.3648 23.7802 54.368 24.2128 53.9919 24.7017C53.8415 24.8898 54.1048 25.3599 53.6534 25.2283C53.1644 24.2692 54.7818 24.0999 55.0451 23.3289L55.0263 23.3101ZM46.7139 24.3444C46.8455 24.8898 45.7548 25.6985 45.4915 26.4319C45.3034 25.8301 46.3002 24.9462 46.7139 24.3444ZM58.5054 25.3787C58.7311 25.7925 57.7532 26.4507 57.1138 26.5823C57.3206 25.9053 58.1857 25.9241 58.5054 25.3787ZM2.85772 26.0746C3.32788 25.9429 3.21504 26.4131 3.55356 26.4131C3.45952 26.5259 2.85773 26.9397 3.3843 27.1089C3.15863 27.3346 2.12428 26.4131 2.85772 26.0746ZM3.72281 26.7704C4.26819 26.5259 4.92641 27.6543 5.45299 27.974C5.03925 28.0868 4.32461 27.0149 3.72281 26.7704ZM33.0229 26.9397C33.3803 27.2406 32.7973 28.0868 32.8537 28.6698C32.534 28.3877 32.9289 27.3534 33.0229 26.9397ZM56.7752 26.9397C56.7 27.3722 55.1391 28.3313 55.5528 27.6355C56.2299 27.6919 56.0794 26.9021 56.7752 26.9397ZM46.7139 27.9928C46.3002 29.4973 45.4539 30.5505 44.4572 31.4532C45.3787 30.4752 45.5667 28.7451 46.7139 27.9928ZM54.857 28.1621C55.0451 28.651 53.8227 29.1964 53.4653 29.723C53.1832 29.14 54.5185 28.7075 54.857 28.1621ZM46.1873 30.0615C46.6387 29.9675 45.6419 31.1899 45.3222 31.4532C45.0401 31.1147 45.7924 30.3248 46.1873 30.0615ZM49.3092 30.0615C49.6289 30.6633 48.2748 31.0958 48.4441 32.1302C47.3533 32.0173 47.7482 33.5219 46.3566 33.5219C46.3566 33.992 46.6387 33.8792 46.3566 34.2177C45.8864 33.7475 45.9805 34.4245 45.4915 34.3869C46.5635 32.7508 48.162 31.6224 49.3092 30.0615ZM10.8316 31.6224C11.5086 31.2463 11.9035 32.638 12.3925 33.0141C11.8471 33.2586 11.377 31.9609 10.8316 31.6224ZM40.8087 31.6224C41.0908 31.6224 40.3198 33.3902 39.9437 33.8792C39.8496 33.4278 40.4702 32.2054 40.8087 31.6224ZM37.875 33.8792C38.0818 33.7287 38.3451 33.6535 38.7401 33.7099C38.9281 32.9577 39.1538 32.2806 39.4359 31.6224C39.6616 32.4875 39.9437 33.7287 38.7401 34.2177C38.9093 35.4777 37.7621 36.0419 37.3484 36.9822C37.1791 37.3583 37.3108 37.9413 37.1791 38.3739C37.1039 38.6372 36.7466 38.9569 36.6526 39.2389C36.3893 40.01 36.4081 40.3861 35.9567 40.9691C35.7875 38.7876 37.6681 36.7189 37.8562 33.8604L37.875 33.8792ZM39.2478 34.7443C39.5111 34.9135 39.0033 35.7598 38.9093 36.1359C38.5332 35.8538 39.1538 35.1204 39.2478 34.7443ZM44.7957 34.9135C45.1154 36.4368 43.3288 37.0762 42.3697 38.2046C42.0688 38.5807 41.8431 39.1261 41.5046 39.5963C40.3574 41.1572 38.9281 43.3575 37.8562 45.1441C37.386 45.1441 37.0475 45.8776 36.8218 45.1441C36.6338 44.4107 37.1227 45.0689 37.3484 44.9749C37.9878 44.6928 38.552 43.6396 38.7401 42.7181C39.5487 41.6273 40.489 40.7058 41.3353 39.5963C41.6174 39.2201 41.7302 38.5995 42.0311 38.2046C42.727 37.2831 44.0246 36.6249 44.1186 35.252C44.5136 35.3084 44.7769 35.2144 44.8145 34.9135H44.7957ZM30.5969 35.252C31.368 36.1923 30.3901 37.001 30.2584 38.0165C29.9011 37.3019 30.5217 36.0983 30.5969 35.252ZM48.9706 41.3264C48.1432 40.6306 47.3721 42.3796 46.7139 41.853C47.6166 41.6085 48.1996 41.0255 48.8014 40.4614C49.8169 40.5554 50.0426 39.8596 50.8889 39.7655C50.494 38.9381 50.3247 37.7156 51.2274 37.3395C50.8701 36.8317 50.5316 37.7721 50.0238 37.678C50.1554 37.1138 50.9641 37.3207 50.5504 36.6437C51.4719 37.001 51.942 35.8538 52.9764 35.7786C51.9044 36.3804 51.5095 37.6592 50.7196 38.5431C50.8137 39.0885 51.2274 39.2954 51.2462 39.9348C50.5504 40.2733 49.7793 40.5366 49.3468 41.1384C49.5536 41.665 50.005 40.8939 50.2119 41.3076C49.5724 41.8906 48.5569 42.0787 47.7859 42.5112C47.579 42.1727 48.9895 41.9847 49.0083 41.3076L48.9706 41.3264ZM25.0491 36.1171C25.933 39.8596 26.8921 43.508 27.4751 47.5513C27.0238 47.4009 27.3435 46.8367 27.1366 46.1596C26.8545 45.2758 26.1963 44.8244 26.61 43.5644C25.6133 41.5709 25.5945 38.5619 25.0491 36.1171ZM33.0229 36.4744C33.2862 36.9634 33.1734 37.5276 33.0229 38.0354C32.7785 37.9789 32.8725 37.6028 32.8537 37.3395C32.1202 39.2013 32.0638 41.759 31.462 43.7525C31.1423 41.8342 32.4588 38.8252 32.3271 36.4744C32.4588 37.2831 32.4964 37.1703 33.0229 36.4744ZM47.579 37.678C44.5136 40.499 41.5046 43.3763 38.3827 46.1596C38.9093 45.1817 40.0001 44.185 40.978 43.2071C42.0311 42.1727 43.1219 41.0632 44.2691 40.2545C43.7425 40.104 43.9682 39.0133 44.6076 39.0509C44.5324 39.3894 44.1186 39.3706 44.2691 39.916C45.6043 39.3894 46.3002 38.2422 47.5602 37.6592L47.579 37.678ZM35.449 37.8661C35.8627 38.5055 35.0164 39.3894 34.9224 40.1228C34.5275 39.4834 35.449 38.6936 35.449 37.8661ZM15.3263 38.5431C16.3606 38.9004 17.3385 40.7999 18.4481 41.665C17.8087 42.0411 17.6394 41.082 17.2257 40.6306C16.6239 39.9724 15.8905 39.3518 15.3263 38.5431ZM49.8357 39.4082C49.4784 39.8596 48.8014 39.9912 48.2748 40.2733C48.5193 39.7091 49.2527 39.6339 49.8357 39.4082ZM22.6231 39.7655C23.7515 40.7811 23.601 42.2103 23.8455 43.3951C23.7327 43.5832 22.8112 41.6838 22.9804 40.4425C22.9804 40.104 22.5103 40.2169 22.6419 39.7467L22.6231 39.7655ZM20.7049 41.1572C21.4759 41.7026 21.7016 42.8121 22.435 43.4139C21.8332 43.3763 20.9117 42.1727 20.7049 41.1572ZM14.2919 7.55042C15.646 10.2397 16.323 13.606 17.583 16.3894C17.9027 16.4082 17.9403 16.1825 18.2789 16.2201C17.9591 16.8031 17.8651 17.198 18.1096 17.9503C17.8839 17.7246 17.7711 17.4237 17.583 17.9503C16.2854 14.6216 15.1946 11.1048 13.7654 7.90774C14.2167 7.94535 14.3295 8.26506 14.2919 7.56923V7.55042ZM37.7057 27.297C37.1791 26.7516 37.8562 25.9617 37.7057 25.2095C37.4048 25.1531 37.386 25.3411 37.3672 25.548C37.1415 24.0623 38.0818 23.1972 38.4015 21.3918C38.7212 19.6616 38.5144 17.7622 39.4359 17.9315C39.0598 17.4989 38.9281 16.7655 39.7744 16.7279C39.4923 19.6805 38.3451 21.7491 38.0442 24.7017C39.4547 21.6927 37.9878 26.3191 37.7057 27.297ZM35.0916 25.3787C35.0916 27.1277 34.0197 30.9454 33.7 33.5219C33.4931 33.4466 33.3427 33.2962 33.3615 32.9953C32.9665 33.8228 32.7973 34.8571 32.6656 35.9479C32.3459 34.9323 32.9289 33.3338 33.1922 32.3182C33.3991 32.3371 33.3427 32.638 33.3615 32.8448C33.6059 32.638 33.7564 32.1866 33.5307 31.9797C33.3803 32.0926 33.211 32.1866 33.1922 31.9797C32.44 32.9012 32.4964 34.6314 32.1579 35.9667C32.0074 34.8947 32.2331 32.3371 32.3271 31.472C32.7221 31.5472 32.4023 32.3183 32.4964 32.6756C33.3239 31.5284 33.1546 30.4376 33.3615 28.6886C33.7188 28.8391 33.5495 29.8922 33.3615 30.0803C34.5086 28.7639 34.283 26.7516 35.0916 25.3975V25.3787ZM12.0352 36.3052C12.3361 36.5309 12.7122 36.6625 12.731 37.1703C12.242 37.1326 11.9976 36.8694 12.0352 36.3052ZM42.727 49.8081C42.8586 50.4663 41.8995 50.0337 41.5046 50.1466C41.5234 49.6576 42.2192 49.8269 42.727 49.8081ZM42.727 51.369C42.4825 51.6323 41.8243 51.8579 41.5046 51.5382C41.5986 50.9364 42.332 51.275 42.727 51.369ZM38.2135 51.5382C38.6272 51.5382 39.0221 51.5382 39.4359 51.5382C39.5675 52.1965 38.6084 51.7639 38.2135 51.8768V51.5382ZM38.0442 52.7606H39.2666C39.3983 53.4189 38.4392 52.9863 38.0442 53.0992V52.7606ZM34.5839 53.2684C35.0164 52.9487 35.2421 53.2684 35.9755 53.0992C35.7499 53.5693 35.0352 53.4377 34.5839 53.2684ZM4.5879 25.0402C5.86672 25.3787 7.39003 26.9585 8.23631 28.3313C9.62798 28.7263 10.0981 30.0615 10.8316 31.0958C8.78169 29.9111 6.90107 27.0525 4.41864 25.7173C4.39984 25.4916 5.11447 25.1907 4.5879 25.0214V25.0402ZM37.0099 27.4662C37.5553 27.6543 37.5176 28.4442 38.2323 28.8579C37.5553 31.6036 37.0287 34.0108 35.9755 36.6437C35.637 36.4556 36.1824 35.7222 35.9755 35.0828C35.449 35.252 35.5994 36.0983 35.2797 36.4744C34.96 36.3428 35.1669 35.9479 34.7531 36.3052C34.5463 36.8506 35.0164 36.7189 35.0916 37.001C34.96 37.5652 34.7343 38.0165 34.3958 38.3927C34.2077 39.1825 34.377 40.3297 33.7 40.6494C34.2077 37.5276 35.0728 34.7443 35.5994 31.6412C35.9567 31.6976 36.1448 31.6036 36.126 31.3027C35.7122 31.5284 35.7875 31.0958 35.9567 30.2684C36.2012 30.3248 36.1072 30.7009 36.126 30.9642C36.5585 30.1743 37.48 28.8579 36.8218 28.0116C36.5961 28.1245 36.5021 28.3877 36.4833 28.7074C36.0884 29.1024 36.5397 28.1621 36.4833 27.8424C36.4269 27.6167 36.1824 27.5791 36.1448 27.3158C35.8063 27.391 35.7122 27.6919 35.2797 27.6543C35.3925 26.62 37.0287 27.0901 37.0099 25.9241C37.3296 25.5292 36.8218 26.9021 37.0099 27.485V27.4662ZM37.5176 30.0615C37.1227 31.3403 36.1824 32.9953 36.4833 34.3869C36.8218 33.0517 37.4612 31.0958 37.5176 30.0615ZM35.2609 35.9479C35.2985 34.7631 36.4457 33.7851 35.9567 32.6568C35.8251 33.7475 34.9036 34.9511 35.2609 35.9479ZM15.6836 27.1277C17.1693 28.5382 17.1505 31.4344 19.332 32.149C19.0499 31.2651 18.4481 30.7197 18.2977 29.723C19.2944 30.983 19.821 32.7132 20.5544 34.2177C20.3287 33.9732 19.7269 34.1048 19.5201 33.8792C19.6705 34.3117 19.9902 34.5562 20.0466 35.0828C20.2911 34.669 20.3099 34.6502 20.5732 34.5562C21.3631 36.1359 22.3034 37.5652 22.6607 39.5775C21.9273 38.6936 21.7956 37.2079 20.9305 36.4556C21.0622 37.5464 21.852 37.9601 21.9649 39.0509C20.7613 37.0762 19.4072 35.252 18.5045 32.9953C18.1848 32.9765 18.1472 33.2021 17.8087 33.1645C18.0156 32.4499 17.4514 32.4875 17.4702 31.9609C17.7147 32.149 17.8839 32.149 17.9968 31.7917C17.4702 30.0239 16.2854 28.8767 15.74 27.1089L15.6836 27.1277ZM5.28373 29.0272C5.34015 28.651 5.82911 29.2716 5.97956 29.3657C6.44972 29.2152 5.50941 29.046 5.81031 28.5006C6.67539 28.8015 7.03271 29.5913 7.70974 30.0615C7.70974 30.4376 6.58136 29.7982 7.18316 30.4C6.73181 30.4564 5.86672 29.4033 5.28373 29.0083V29.0272ZM7.54048 30.7573C8.46199 30.5881 8.40557 31.3967 9.27066 31.2839C8.81931 31.6036 8.83811 32.3182 9.27066 32.4875C8.83811 32.4499 8.06706 31.2651 7.54048 30.7573ZM12.9003 34.2177C15.4955 36.0231 18.4857 38.9192 20.1783 42.1915C19.0499 41.3452 18.4481 39.9912 17.7523 38.7312C17.3385 38.7312 17.2445 38.4303 16.7179 38.5619C15.6272 36.9446 13.9158 35.929 12.9003 34.2365V34.2177ZM16.5487 49.6388C16.7555 49.62 16.8496 49.6764 16.8872 49.8081C17.1129 52.0648 18.6362 53.0239 19.4825 54.6601C19.7269 54.6601 19.9714 54.6413 20.009 54.8293C22.7171 54.5284 25.4816 54.3028 28.1521 53.9642C27.1554 55.4499 24.9927 54.6601 23.3001 54.8293C22.0777 54.9422 20.8741 55.5816 19.6517 55.3559C18.4481 53.6069 16.4358 52.6854 16.5299 49.6388H16.5487ZM30.7662 53.9642C30.0516 53.9266 30.1832 53.0427 29.5438 52.9299C28.9608 52.9299 28.9044 53.4377 28.6787 53.795C27.8136 51.6511 31.4996 52.5162 30.7662 53.9642ZM36.8218 13.2675C37.0663 13.0607 37.1415 12.6657 37.1603 12.2332C37.292 12.7033 37.292 13.2111 37.1603 13.6248C37.1039 13.7941 36.709 13.6813 36.6337 13.7941C36.0696 14.7344 36.3517 16.7279 36.1072 18.2888C35.9379 19.4924 35.2985 20.5455 35.2421 21.5799C35.2609 22.0124 35.0352 21.8808 35.0728 21.5799C35.5806 19.3607 35.8627 16.9347 36.1072 14.4711C35.9567 14.2266 35.8439 13.9257 35.4113 13.9445C34.2454 14.2831 34.6967 15.7876 34.5463 16.8971C34.3018 18.6461 33.6812 20.6396 33.5119 22.2757C33.6624 22.8399 32.9477 22.5202 32.9853 22.9715C33.211 24.4572 32.4964 25.9993 32.2895 27.1277C32.0074 28.7074 32.1767 30.4752 31.951 32.149C31.9134 32.4311 31.6501 32.7132 31.6125 33.0141C31.5749 33.2586 31.8193 33.5971 31.7817 33.8792C31.5749 36.1359 31.0295 38.6748 30.9167 40.7999C30.785 43.1695 31.0295 45.539 30.7474 47.7206C29.8447 41.3264 31.8946 33.5595 31.9698 27.1089C31.2928 27.9364 31.5749 29.723 31.1047 30.7385C30.3713 29.5725 31.1047 27.7295 31.274 26.4131C30.785 25.9429 30.5593 26.714 29.8823 26.5823C29.7131 25.7925 30.6157 25.4916 31.1047 25.8865C31.5373 25.3223 31.8946 25.7549 31.8005 24.6829C31.5937 24.7017 31.6501 25.0026 31.6313 25.2095C31.4056 21.1097 32.6468 16.0697 33.0229 12.5717C32.1955 11.8759 31.368 12.4777 30.5969 12.7409C30.785 12.252 30.785 12.0263 30.5969 11.5373C30.1456 11.9511 30.5405 12.9666 30.7662 13.2675C30.0328 15.1105 30.8414 17.9127 30.0704 19.3231V22.0877C29.9387 22.4074 29.8823 21.9936 29.9011 21.7491C29.7883 18.8154 30.202 16.3894 30.0704 13.4368C30.014 12.8538 29.525 14.1138 29.3745 13.4368C29.2617 12.5717 30.0704 13.3616 30.2396 12.5717V11.18C31.3492 9.37463 30.4465 5.19964 30.5781 2.69841C30.9167 2.94289 31.1987 3.67633 31.274 4.09007C31.4808 5.25606 31.1799 6.85459 31.1047 8.24625C31.0483 9.52508 30.9166 10.8979 31.1047 12.0639C32.1767 11.7254 33.0606 11.6878 33.7 12.4024C33.9633 11.4057 33.9633 10.1269 34.0385 8.94208C33.9821 8.6788 33.7376 9.09253 33.7 8.77283C33.9068 6.77936 34.1701 4.12768 34.0385 2.3599C34.6779 2.3599 34.3018 3.37543 35.0728 3.22498C34.9412 0.968234 31.6501 1.09988 30.2208 2.19064C29.6754 4.01485 30.5029 5.27487 29.6942 6.68533C29.3933 5.6886 29.8071 3.92081 29.8635 2.69841C29.1301 2.99931 28.9232 3.84559 27.776 3.73275C27.776 4.63545 28.0581 5.29367 27.9453 6.32801C27.4563 5.48173 28.0957 3.52588 26.5536 3.73275C26.4784 4.44739 26.9109 4.63545 27.2494 4.93635C27.2306 7.58803 28.3778 9.48746 27.9453 12.0451C27.8888 12.9666 29.525 12.9102 28.9796 13.7753C28.5283 14.2266 28.6223 13.2675 28.1145 13.2487C27.7572 13.8693 28.4154 15.5055 27.4187 15.5055C27.7196 17.781 27.6068 19.4736 27.7572 21.7491C28.1333 21.7868 27.8324 21.1285 27.9265 20.8841C28.3966 21.9372 28.4906 23.4981 28.265 24.871C28.2274 25.1155 27.9265 25.4916 27.9265 25.7361C27.8136 28.0868 28.5095 30.5505 28.453 32.4875C28.9984 31.3215 28.4906 30.1179 28.6223 28.5006C29.0736 28.3125 29.1301 29.6666 29.3181 28.6698C29.2429 29.4597 29.3369 31.6224 29.3181 33.3526C29.036 33.8604 29.1865 32.4687 29.1489 32.149C28.0769 32.638 29.036 33.1645 28.8104 34.575C29.0172 34.4998 29.1677 34.3493 29.1489 34.0484C29.619 34.5938 28.5283 35.0263 28.8104 35.9479C28.5471 35.7974 28.4342 35.5153 28.4718 35.0828C27.776 37.095 28.5847 33.898 27.6068 34.5562C27.5127 33.9356 27.8888 33.8039 28.1333 33.5219C27.4939 32.3559 27.0802 28.8203 27.9641 27.8048C27.3811 22.7271 27.3623 17.0852 26.7417 12.0451C26.027 14.8849 27.1178 19.0975 26.7417 22.0877C26.4408 19.2667 26.5348 16.0697 26.0458 13.418C25.8578 12.9666 25.35 12.8538 24.6542 12.8914C24.8234 12.2144 25.5381 12.7409 26.0458 12.7221C26.4032 10.2585 25.5381 7.64445 25.7073 5.27487C25.9142 5.29367 25.8578 5.59457 25.8766 5.80144C26.2527 5.78263 25.9518 5.068 26.0458 4.7671C24.6918 4.33455 26.1775 2.0778 24.8234 1.81452C24.2404 1.64526 24.5601 2.3599 24.4849 2.6796C24.1276 2.52915 23.9583 2.17183 23.9583 1.64526C22.9804 1.53242 22.924 2.34109 22.0589 2.34109C22.4915 0.648527 26.422 0.629721 26.0458 3.03692C29.525 4.31575 29.6378 0.103147 33.6812 0.968234C34.6779 1.1751 35.1481 1.68287 35.7687 2.86766C34.4898 5.95189 34.6027 9.58149 34.377 12.7409C34.5839 12.6657 34.7343 12.5153 34.7155 12.2144C35.0164 12.4965 35.0916 12.9854 35.054 13.606C35.7687 13.8317 35.5806 13.2487 36.0884 13.9445C36.5021 13.6436 36.2764 13.0795 36.6149 12.3836C37.1979 12.5341 36.709 12.7033 36.7842 13.2487L36.8218 13.2675ZM27.6444 14.6404C27.6632 13.3051 27.9453 9.9012 27.1178 8.3967C26.8357 7.23071 27.2306 5.40651 26.2527 4.93635C26.4596 8.77283 26.9861 11.8759 27.6444 14.6404ZM31.8005 22.9527C32.0074 23.611 32.2519 23.4041 32.3271 23.9871C32.4212 24.6641 31.5185 25.3975 32.1579 26.0558C32.7597 25.2471 33.0606 23.1596 32.4964 22.2381C33.1922 19.4548 33.4931 16.2953 33.7188 13.0607C33.6812 12.929 33.5683 12.8538 33.3803 12.8914C33.1922 16.0697 32.2707 19.4924 31.8194 22.9339L31.8005 22.9527ZM33.7 18.1195C34.283 16.8595 34.4334 15.167 34.5651 13.4368C34.5274 13.3051 34.4146 13.2299 34.2265 13.2675C34.1513 15.1293 33.4179 16.8407 33.7 18.1195ZM21.7392 3.5635C20.4792 4.25933 18.8807 5.31248 17.0564 4.42858C17.3573 5.12441 18.0532 5.46293 18.6174 5.46293C18.9559 6.44085 19.2004 7.53161 19.4825 8.58476C19.5013 8.79163 19.8022 8.73521 20.009 8.75402C20.3852 10.6346 20.686 12.5905 21.2314 14.3019C21.4383 14.2266 21.5888 14.0762 21.5699 13.7753C21.8708 14.2266 22.0777 14.772 22.0965 15.5055C21.7016 15.3738 22.0401 14.5087 21.4007 14.6404C21.1562 16.3894 22.0589 18.4957 22.435 20.1882C22.5103 20.3951 22.6607 20.5455 22.9616 20.5267C23.507 25.5668 24.9739 30.1555 25.9142 35.252C25.7449 35.158 25.6509 34.7631 25.5757 35.0828C24.6918 33.0705 24.3533 30.5317 23.8455 28.1621C23.018 28.2373 23.7139 28.8391 23.3189 29.1964C22.7171 28.3501 22.9428 27.5039 22.7923 26.4319C23.2813 26.6388 22.9428 27.6731 23.3189 27.9928C24.1652 27.5979 23.4318 26.5447 23.3189 25.9053C22.924 23.6862 22.4162 21.5423 21.9273 19.1539C21.6828 19.3607 21.7016 19.8497 21.2314 19.8497C21.2878 20.0754 21.664 20.0002 21.9273 20.019C22.4726 22.2945 21.7956 23.705 22.2658 26.0746C21.7392 25.642 22.0213 24.7393 21.9273 23.9871C21.7768 22.9527 21.1562 21.862 21.758 21.3918C20.8177 20.9969 20.3099 18.853 20.0278 17.2356C20.4604 17.7246 20.5544 18.5709 20.7237 19.3043C21.1938 18.5709 20.8365 16.0697 20.1971 15.3174C19.1816 15.1481 20.1971 16.3517 19.5013 16.1825C19.0311 15.4114 19.5953 14.9977 20.0278 14.6216C19.8398 13.606 19.0311 13.1923 18.6362 12.3648C19.1816 10.4278 17.8463 8.90447 17.9403 6.81698C17.3009 5.83905 16.8308 4.69187 16.0409 3.8644C14.5928 4.03365 13.9722 5.03038 13.2764 5.95189C13.3892 6.5913 14.1603 6.5725 14.4988 6.98623C14.4424 7.21191 14.0663 7.13668 13.803 7.15549C13.2764 8.64118 12.0916 10.2397 9.98529 9.5815C12.2232 11.1048 12.8062 14.2643 14.4988 16.3329C14.3295 15.8064 14.3672 15.0729 13.803 14.9413C13.6337 12.9666 12.4113 12.0639 11.9035 10.4466C12.9567 11.4245 13.6525 12.7409 14.1603 14.2642C14.3672 14.4523 14.5176 14.4147 14.4988 14.095C15.157 14.2454 14.6304 14.7908 14.6681 15.2986C14.969 14.1514 15.6272 15.8816 15.1946 16.5022C15.4955 15.7311 16.3982 17.3297 15.8905 17.8939C15.9093 18.2888 16.323 17.6682 16.7555 17.8939C16.6615 18.3264 16.3418 18.5333 16.0597 18.7589C16.229 19.1163 16.417 19.436 16.5863 19.7933C17.0941 19.6428 16.3606 19.3607 16.5863 18.9282C17.0564 19.3231 17.5266 19.7181 17.4514 20.6584C18.3353 22.8211 18.9371 25.3035 19.8774 27.4098C20.3663 25.7173 19.5013 25.7549 19.1815 24.1187C19.5953 24.2128 19.5765 24.7769 19.7081 25.1531C20.009 23.2913 18.6174 20.7148 18.6738 19.0975C19.7834 22.3133 20.3663 26.0558 21.9649 28.8015C22.0213 30.9454 22.7359 32.7508 23.1873 35.0452C23.3753 36.0231 23.9771 36.7565 24.2216 37.6404C24.6918 39.2954 24.8234 41.27 25.256 43.0002C25.3688 43.4704 25.7073 43.9217 25.7825 44.3919C25.9518 45.5014 25.7637 46.4606 26.3091 47.3444C25.3688 46.5546 24.9927 45.1817 24.2216 44.2226C24.5978 43.9593 25.0491 45.1253 25.256 45.6143C24.9739 41.27 23.1497 37.1515 22.1341 32.6191C21.7204 32.5439 22.2282 33.409 21.6076 33.1457C21.081 31.5848 20.6484 29.9487 20.0466 28.463C19.2568 28.3689 18.6926 26.7704 18.3165 25.6984C18.5986 25.4164 18.6362 26.8644 19.1815 26.9021C18.9747 25.9994 18.9183 24.965 18.3165 24.476C18.072 24.5325 18.166 24.9086 18.1472 25.1719C17.7523 24.7017 17.5078 24.0811 17.6206 23.1032C15.5896 20.3575 14.4048 16.7279 12.242 14.095C12.3737 13.5684 11.9411 13.5872 12.0728 13.0607C10.982 12.1203 10.6435 10.4466 9.30827 9.76956C8.72528 10.2961 8.25512 10.9167 7.91661 11.669C8.44318 13.4932 10.399 14.584 11.377 16.1637C11.8095 16.8595 11.9599 17.687 12.4113 18.4204C12.825 19.0975 13.3892 19.624 13.803 20.3199C14.3672 20.3199 13.9158 19.2855 14.6681 19.4548C13.4833 22.7083 16.3982 24.5701 17.0941 27.0713C16.1349 26.3003 15.4015 23.799 14.3295 22.5766C13.4645 23.1596 14.4988 24.3632 14.6681 25.0026C14.5928 25.5104 14.1415 23.611 13.4456 23.611C12.8815 23.4605 13.2012 24.1751 12.7498 24.1375C14.0851 26.6764 15.9845 28.651 17.2633 31.2463C16.4735 31.2651 16.3418 29.1776 15.0066 29.1588C14.6869 28.6322 15.157 28.3877 14.8373 27.9552C14.668 28.068 14.6492 28.3501 14.3107 28.2937C13.803 27.0713 13.0131 26.131 12.2232 25.1719C11.6402 25.059 11.5838 25.454 11.5274 25.8677C10.9068 25.3975 11.8847 25.0778 11.6967 24.476C10.0041 21.5047 8.14228 18.6649 5.62224 16.5022V15.8064C5.13328 15.7688 4.90761 15.4867 4.39984 15.4679C4.39984 16.2577 5.07686 16.4082 5.62224 16.6715C5.62224 17.2168 5.82911 17.4989 5.96076 17.875C7.80377 19.3984 9.1014 21.4482 10.4743 23.4229C9.51514 22.6518 8.01064 20.9217 7.18316 19.436C5.73508 18.5709 5.26492 16.7279 3.89207 15.8064C2.61324 17.4425 3.32788 20.1506 4.92641 20.8276C5.60344 20.5643 4.19297 20.113 4.75716 19.9625C6.26166 20.9405 7.12674 22.5766 8.21751 23.9495C9.49633 24.4008 10.0605 25.5668 10.8128 26.5447C10.9632 26.4695 11.1137 26.3943 11.1513 26.2062C11.471 26.4131 11.2829 27.1089 11.4898 27.4098C13.4833 29.5161 14.8749 32.2242 16.6991 34.5186C17.1881 34.5938 16.5675 33.5783 17.0376 33.6535C17.8087 33.7287 17 34.3117 17.3762 34.6878C19.2944 37.3207 21.0246 40.1605 22.7547 43.0002C23.1309 43.696 22.4538 43.0002 22.4162 42.6617C21.4571 41.759 20.8365 40.5366 20.1595 39.3706C19.5953 39.2578 19.915 39.9912 19.4636 39.5398C19.5013 39.1073 20.1219 38.9569 19.6329 38.5055C19.426 38.5431 19.4825 38.8252 19.4636 39.0321C17.0188 36.0043 14.7809 32.732 12.1856 29.8546C12.2797 29.3469 12.4489 30.1179 12.7122 30.0239C12.5053 28.6698 11.7155 27.8988 10.8128 27.2594C11.3393 27.7859 11.3958 28.7451 12.0352 29.1588C11.1325 29.3092 10.5683 27.6355 9.60917 27.2594C9.83484 25.4728 8.42438 25.3223 8.04825 24.1375C7.87899 24.2504 7.86019 24.5325 7.52168 24.476C7.35242 23.7238 6.41211 23.7426 6.48733 22.7459C6.16763 22.7271 6.13001 22.9527 5.7915 22.9151C6.11121 22.1253 5.35896 21.4106 4.39984 21.3542C3.81684 21.467 5.17089 21.9372 4.56909 22.05C3.83565 21.7303 2.82011 21.7115 2.4816 21.0157C1.82338 21.1097 1.71054 21.7491 1.61651 22.4074C2.31234 23.3853 3.40311 23.9871 4.38103 24.6641C4.11774 25.0214 3.21504 24.5701 2.82011 24.4948C3.00818 25.2095 1.86099 25.6044 1.59771 26.3943C2.14309 28.6698 5.67866 29.7794 4.19297 32.4499C5.45299 34.6502 7.37123 36.1923 9.57156 37.4712C9.66559 38.8816 10.6999 39.333 11.3017 40.2357C12.6558 40.4426 13.3704 41.2888 14.7621 41.4393C16.229 42.9626 18.4481 43.7524 20.3099 44.8996C21.9085 46.7614 23.7515 48.3976 25.5193 50.0902C23.8831 50.203 22.924 46.5546 21.0058 47.4949C21.5511 46.7991 21.081 46.3665 20.4792 45.934C20.0466 46.1597 20.7425 46.705 20.6484 47.1376C19.7834 46.2161 19.6141 44.5987 18.2224 44.185C17.3385 45.5014 18.2977 48.6421 17.6959 50.2406C17.1881 48.0967 18.9183 42.9814 15.7964 42.9626C16.7179 44.4483 15.4579 46.6862 16.4923 48.3412C15.1006 47.9086 15.5331 46.2725 15.7964 45.3886C15.9469 44.862 15.9657 44.1662 15.6272 43.4892C14.8561 41.947 14.0662 41.3452 11.471 41.0632C9.79723 39.4458 9.15782 36.7941 6.44972 36.2111C5.96076 35.5717 5.52821 34.6502 4.8888 33.9544C4.47506 33.503 3.96729 33.3902 3.85446 32.5627C3.77923 32.055 4.13655 31.566 4.02371 31.0018C3.60997 28.9143 -0.5274 27.0525 2.12428 24.7581C2.10548 24.0999 1.16516 24.3444 0.901874 23.8931C0.770231 22.3133 1.29681 21.3918 1.76696 20.4327C2.80131 20.1506 2.66966 21.0345 3.49714 20.9593C3.91087 20.3763 3.06459 19.8685 2.80131 19.3984C2.53802 17.5553 2.72608 15.5055 4.02371 14.7156C4.56909 14.678 4.60671 15.1669 5.24612 15.0541C6.43091 14.6216 7.23958 14.0198 7.50287 12.6281C7.5969 12.1391 7.35242 11.5562 7.50287 11.0672C7.91661 9.78836 8.85692 9.41224 9.75962 8.81044C10.3802 8.77283 10.399 9.33701 10.982 9.33701C12.0728 9.05492 12.5429 8.13341 13.2388 7.43758C11.5086 4.80471 15.7588 2.17183 18.0908 4.14649C19.915 4.29694 20.8553 3.5635 21.5511 2.58557C22.0589 2.81125 21.7016 3.63872 22.4162 3.97723C22.7547 7.00504 23.4506 9.63791 23.8079 12.6469C23.7703 13.023 23.9583 13.1923 24.3345 13.1735C24.673 19.6993 25.7449 26.9397 26.2339 33.7851C25.6697 32.2242 25.6133 30.2872 25.3688 28.4065C24.8987 24.9086 23.6951 20.5832 23.8079 16.1073C23.8455 15.9568 23.7327 15.938 23.6386 15.938C24.4097 15.9756 23.996 15.5431 23.8079 14.5463C23.2437 11.3869 22.4726 6.45966 21.7204 3.46947L21.7392 3.5635ZM20.8741 15.6935C20.2159 12.7221 19.6329 9.65672 18.4481 7.21191C18.6738 10.6158 19.6517 13.2863 20.8741 15.6935ZM13.4268 22.7835C14.7245 21.6739 13.0883 19.8873 12.0352 18.2888C10.6247 16.1449 9.47753 14.5087 8.04825 13.0983C7.52168 14.3395 9.72201 15.2234 9.43991 16.2201C8.72527 15.6183 8.34915 14.6404 7.70974 13.9633C7.03271 14.4335 6.71301 15.2798 5.81031 15.5243C6.22404 16.4646 7.25839 17.3861 7.8978 18.1195C7.99183 18.2136 8.02944 18.9282 8.42437 18.458C8.14228 18.1007 7.44645 17.2544 7.72854 16.8971C8.96976 18.7778 10.1545 20.7148 11.7155 22.2757C11.7531 22.0124 11.6591 21.6363 11.8847 21.5799C12.5618 22.2757 11.6214 23.5545 12.9191 23.6674C13.5209 23.5921 13.2764 22.9151 13.4456 22.8023L13.4268 22.7835ZM10.1357 21.2226C10.0605 20.3199 9.32708 20.0754 8.91334 19.4924C9.19543 20.1882 9.55275 20.8088 10.1357 21.2226ZM24.5225 20.1882C24.5037 19.5112 24.6542 18.6649 24.184 18.458C24.2028 19.1351 24.0524 19.9814 24.5225 20.1882ZM25.2184 25.0402C25.0679 23.9871 25.2184 22.633 24.6918 21.9184C24.7482 23.0844 24.8046 24.2316 25.2184 25.0402ZM1.46606 23.6486C1.86099 23.8178 2.03025 24.2504 2.68847 24.1751C2.82011 23.4793 1.67293 22.9715 1.46606 23.6486ZM35.7875 8.75402C36.2952 9.9012 34.7907 10.5218 35.0916 12.0451C34.5275 11.2176 35.0916 9.16776 35.4302 7.1931C35.6746 5.76383 36.0508 4.35336 36.2952 3.20618C37.1603 3.20618 37.5929 3.63872 38.0254 4.07126C39.6616 3.18737 43.6485 2.04019 43.9118 4.93635C45.0213 4.93635 45.5291 5.51935 45.9993 6.13995C47.3157 4.67307 49.1399 5.59457 50.3247 6.83578C49.8734 8.81044 50.6068 9.82598 52.0549 10.2961C51.5471 11.8006 50.4563 12.7409 49.7981 14.1138C49.7981 12.9478 51.1334 11.6314 51.6976 10.4842C51.5847 10.5218 50.2871 9.61911 50.3059 9.61911C49.328 9.75075 49.6665 11.7066 48.4065 11.8759C46.507 17.4425 43.2159 21.4106 41.467 27.4662C42.7458 26.8268 42.5013 24.6829 43.7237 24.0059C43.2159 24.8334 42.8774 25.8113 42.5013 26.7704C43.5356 26.5823 43.7989 24.1375 44.5888 23.1408C44.476 24.7017 43.1219 26.5259 42.5013 28.1621C41.9747 27.9552 42.6894 27.5603 42.5013 27.1277C41.8243 27.6731 41.6738 28.7263 41.2789 29.5537C41.5422 29.7982 42.05 28.8391 42.144 28.3501C42.4449 29.2716 41.2977 30.2684 41.1096 31.3027C40.6395 31.1523 41.3541 30.7573 41.1096 30.2684C40.9028 30.3436 40.7523 30.494 40.7711 30.7949C40.3762 29.8734 41.467 28.9519 41.6362 28.0304C40.6019 28.7263 40.489 30.3436 39.7368 31.3215C39.4359 31.2651 39.9625 30.7197 39.2102 30.7949C39.6616 29.8358 39.4923 29.14 39.906 28.3689C40.5643 28.651 39.7556 29.911 39.5675 30.4564C40.6395 30.0239 40.301 28.1997 41.2977 27.6919C42.2192 22.7271 44.8145 19.436 46.507 15.2234C46.4318 12.6281 48.7638 9.13015 49.9674 7.08027C49.4596 6.38443 48.5005 6.12115 47.5414 5.87666C46.8079 6.47846 46.5635 7.55042 45.6419 7.96416C45.5479 7.34355 46.2626 7.53161 46.1685 6.92981C46.1121 6.51608 45.6231 6.53488 45.4727 6.23398C44.7769 6.5725 44.8145 7.64445 44.4383 8.30267C43.7613 7.4752 45.6984 6.23398 44.6076 5.53815C43.6861 5.82025 43.987 6.8734 43.7425 7.62565C43.2347 9.16776 42.238 11.2929 42.0123 13.512C41.2601 13.0795 42.4073 12.0639 42.1816 11.086C41.4105 10.8603 41.8055 11.9699 41.655 12.4777C41.3729 13.4368 40.7147 14.584 41.1284 15.5995C41.6738 15.2046 41.6174 15.9192 41.8243 15.5995C42.1628 15.8252 41.561 16.4458 42.5201 16.2953C42.1064 16.7091 42.3509 17.3861 42.1816 17.8562C42.1252 17.9879 41.7302 18.0819 41.655 18.1948C41.1096 19.2855 40.9592 20.602 40.6207 21.6551C39.9437 23.7426 39.2666 25.5104 38.5332 27.7107C39.135 24.1563 40.8275 20.1882 41.9935 16.6338C41.561 15.7876 41.4482 16.7279 40.9592 15.938C40.4702 16.2013 40.4702 16.9535 40.4326 17.6682C39.7368 18.2888 40.0753 19.9625 39.2102 20.4327C39.7368 18.6461 40.1693 16.7843 40.6019 14.8849C40.5643 14.6968 40.2634 14.772 40.2634 14.5463C41.5234 11.4809 41.8995 7.51281 43.3852 4.67306C43.1783 3.73275 42.1628 3.5823 41.1284 3.46947C40.0941 4.1653 40.489 6.30921 39.5675 7.09907C39.6427 7.43758 39.4547 7.71968 39.3983 7.43758C39.3983 6.64772 39.8308 6.25279 39.7368 5.35009C40.2257 5.19964 40.1129 4.44739 40.4326 4.14649C39.4359 3.61991 38.7024 4.67306 37.6493 4.67306C37.3296 4.87993 37.5176 5.57576 37.3108 5.87666C36.803 5.35009 37.8562 3.97723 36.7842 3.78917C35.8815 4.7859 36.2012 7.00504 35.9191 8.64118C35.6746 8.79163 35.2421 8.77283 35.3925 9.33701C35.7687 9.41224 35.7311 9.09253 35.7311 8.81044L35.7875 8.75402ZM48.7826 10.1457C49.6665 10.1457 50.1554 8.86686 49.6477 8.05819C49.3468 8.73521 48.9142 9.28059 48.7826 10.1457ZM52.7883 10.6723C53.0328 10.409 53.4653 10.3149 54.0107 10.3337C55.4588 11.6878 56.1734 13.8693 55.9102 16.0508C55.8725 16.427 56.5308 16.1261 56.7752 16.2201C56.7188 16.4458 56.4743 16.4834 56.4367 16.7467C57.6027 16.7467 58.2233 17.7058 59.032 18.6461C59.8971 19.6428 60.4613 20.2446 59.5586 21.7679C57.3018 22.6895 55.8725 24.4384 54.18 25.9241C56.2675 24.8898 58.0353 23.5357 59.7278 22.1065C59.8595 23.8366 59.9911 24.1751 59.8971 25.5668C60.5741 26.037 61.0819 26.6952 61.1195 27.8236C60.4049 28.0868 59.3517 29.0648 58.6935 29.9111C59.5962 30.2308 60.5365 29.0836 60.781 28.1809C61.1759 28.9895 60.3672 30.0803 59.7466 30.4376C59.9159 32.5627 58.6371 33.2586 58.355 34.9323C57.8848 35.2144 57.5087 35.5717 56.9633 35.7974C55.8349 38.7124 53.3525 40.2733 50.8889 41.853V42.5488C50.2119 42.6241 49.5913 43.4704 48.9895 43.0754C50.0802 41.6838 53.1644 40.8187 52.6379 38.9192C53.6346 38.9004 53.1268 39.2578 52.9764 39.7843C54.086 39.333 54.6501 38.3362 55.4024 37.5276C55.3836 37.3207 55.0827 37.3771 54.8758 37.3583C55.0263 37.095 55.3084 36.9822 55.7409 37.0198C56.7752 35.1768 58.6183 34.1236 59.2013 31.8293C57.6591 31.2275 57.7532 32.9012 56.7752 33.2209C56.8881 32.826 56.7941 32.4875 56.0794 33.0517C56.1923 31.8857 58.938 31.8669 59.3705 30.4564C57.377 30.8326 55.2896 32.6191 53.6534 33.9168C52.2806 34.1048 51.4719 34.8571 51.0581 35.9855C50.5504 35.1956 49.6477 36.2111 49.328 36.6813C49.3092 35.9667 50.7008 35.1768 51.5847 34.7819C51.8668 34.5562 52.1865 34.3305 52.2806 33.9168C53.8227 33.4654 54.8194 32.0926 56.0982 31.3215C56.8317 30.8702 57.9412 30.9642 58.1857 29.9299C58.1481 29.7982 58.0165 29.7606 58.0165 29.5913C56.8693 30.0051 56.1923 30.889 55.0639 31.3215C54.9698 30.4752 55.9102 30.6633 56.2863 30.2872C57.3958 28.8579 59.9723 28.8955 60.4425 26.8268C60.0663 26.2062 59.6338 25.6796 58.8815 25.4352C58.9944 24.965 59.615 25.0026 59.5774 24.4008C59.1636 23.8366 58.9944 23.9307 59.4081 23.1972C58.0541 23.7426 57.0761 24.6829 56.117 25.6232C54.2552 25.5292 54.1048 27.5038 52.6567 28.3877C52.4122 28.3313 52.5062 27.9552 52.4874 27.6919C51.2274 28.1057 50.9829 29.5349 49.7229 29.9487C50.4375 29.5725 50.5692 28.6134 50.7572 27.6919C51.0017 27.5039 51.171 27.5039 51.2838 27.8612C54.2928 25.6608 56.6624 22.8399 59.7842 20.7524C59.8407 19.4736 59.032 18.4957 57.5275 18.3264C58.5806 17.6118 56.0606 16.6526 55.6281 17.4613C55.4776 17.3485 56.0982 16.427 55.6281 15.9004C55.3272 15.9004 55.1767 16.032 55.1015 16.2389C54.5937 16.0885 55.3272 15.8064 55.1015 15.3738C53.9167 16.1637 52.7507 16.9347 52.1489 18.3264C53.1456 18.853 53.503 16.3329 54.2364 16.5962C54.9322 16.5962 53.9731 17.4989 53.7098 17.6306C53.3525 18.2512 53.2209 19.0975 52.1489 19.0222C52.1677 19.4548 52.4686 19.5488 52.1489 19.8873C51.1334 19.8497 50.494 20.3199 50.2495 21.4482C50.3059 21.8432 50.7196 21.8432 50.776 21.4482C50.8513 22.2757 49.0835 22.7459 49.2151 24.2128C48.9518 24.476 48.6886 24.7393 48.35 24.9086C48.1244 25.8865 47.4473 26.4319 47.1276 27.3346C46.6199 26.9961 47.6354 26.6952 47.4662 26.131C45.7736 28.4066 43.498 30.889 42.9527 33.7475C43.3664 32.9012 44.2127 32.4499 44.8521 31.8481C44.3819 33.4466 42.6329 35.2896 41.3917 36.7001C40.8275 38.3927 39.6992 39.5022 38.9657 41.0255C38.3451 40.7246 39.2666 40.2733 38.6272 39.6339C39.8872 38.9004 39.7368 37.678 40.5266 36.6813C40.7899 36.7565 40.4514 36.907 40.5266 37.2079C40.978 37.2079 40.7711 36.5308 41.2225 36.512C41.2413 36.1923 41.0156 36.1547 41.0532 35.8162C43.6297 31.8669 45.2282 26.9397 48.6886 23.8742C48.5945 23.1784 48.5945 23.3477 48.6886 22.6706C47.8611 22.1817 47.2217 21.6363 46.4318 20.7712C45.8488 21.279 45.7736 22.3133 45.2094 22.8587C44.9837 21.9936 46.2814 21.1473 46.2437 19.9061C45.6043 20.1318 45.8676 21.2602 44.8521 21.1097C45.153 20.1882 45.9428 19.7745 46.2437 18.853C46.5258 18.8154 46.3754 20.0754 46.7703 19.3796C46.5446 20.7148 48.5757 20.9405 49.0271 22.1441C49.4972 22.2193 49.1963 21.5047 49.5536 21.4482C49.4784 21.185 49.328 21.5235 49.0271 21.4482C50.3435 19.4736 51.7352 17.5742 53.014 15.5619C53.2021 15.5995 53.1268 15.9004 53.3525 15.9004C54.2364 15.355 54.1612 13.8129 55.44 13.6436C55.3084 11.9135 54.3869 10.992 52.8447 10.6911L52.7883 10.6723ZM54.5185 14.9977C54.9322 14.9225 54.8946 15.3174 55.3836 15.167C55.4588 14.772 55.7221 14.2831 55.3836 13.9633C54.7818 14.001 54.6313 14.4711 54.5185 14.9977ZM44.9837 42.6993C44.2127 44.1662 41.467 45.2005 40.1317 46.6862C42.0688 45.3886 44.2315 44.3166 46.2061 43.0566C46.6575 43.5644 45.247 43.696 45.1718 44.2602C46.6199 44.0345 47.2029 42.9438 48.8202 42.8686C49.1023 43.7713 48.0115 44.4295 47.9551 45.4638C47.9363 45.8964 48.1808 46.2725 48.1244 46.6674C47.8611 48.4164 46.7891 49.7328 45.5291 50.4851C44.5888 53.118 42.9527 55.0926 39.9813 55.3371C38.1006 55.4876 35.9943 55.0926 33.7376 54.8105C32.7785 54.6977 31.4244 55.1866 30.9543 54.1147C31.3116 53.889 32.2895 54.1899 32.6844 54.4532C35.5242 54.0583 39.812 55.5252 42.3885 54.1147C43.5921 53.4565 44.7204 51.6887 45.153 49.9585C46.9584 49.2627 48.1056 47.0435 47.579 44.5799C46.5823 44.6175 45.9805 45.0689 46.0181 46.1408C45.8864 45.7271 45.3975 45.2193 45.6796 44.9372C42.9715 44.9937 41.655 46.4605 39.7932 47.3632C39.4171 47.7206 39.9437 47.9274 39.6239 48.2283C39.0786 48.2848 38.7965 47.8334 38.4015 48.2283C37.8374 48.3036 37.9502 49.0558 37.7057 49.4319C36.8218 50.0525 35.8815 50.6167 35.2797 51.5194C34.8848 51.5758 35.0916 51.0117 34.7531 50.9929C33.8504 51.5194 33.117 52.2341 31.8005 52.3845C32.7032 51.3502 34.0573 50.9176 35.0916 50.1278C36.22 49.2815 36.9535 47.965 38.3827 47.5325C38.5332 47.2316 38.7965 47.0247 38.9093 46.6674C41.2037 45.6143 43.1219 44.1662 44.9837 42.6805V42.6993ZM47.0524 44.2602C47.5038 44.0157 48.4253 44.2602 48.4441 43.5644C47.7859 43.602 47.3345 43.8277 47.0524 44.2602Z" fill="#4CA0C6"/>
</svg>
