<svg width="32" height="32" viewBox="0 0 32 32" fill="none" xmlns="http://www.w3.org/2000/svg">
<path d="M22.2262 3.19995L22.2466 3.20022C22.2534 3.2004 22.2602 3.20066 22.267 3.20101C24.503 3.31509 26.2283 5.20886 26.1369 7.44335V24.5566C26.2281 26.7916 24.5021 28.6857 22.2653 28.7989C22.2519 28.7996 22.2384 28.8 22.2249 28.8H9.78086C9.76727 28.8 9.75365 28.7996 9.74008 28.7989C7.50378 28.6848 5.77846 26.7907 5.87019 24.5559V7.44394C5.77848 5.2092 7.50379 3.3151 9.74008 3.20101C9.75365 3.20031 9.76726 3.19995 9.78086 3.19995H22.2262ZM9.80328 4.79995C8.44839 4.87892 7.4068 6.03313 7.46933 7.39116C7.4699 7.40342 7.47019 7.41569 7.47019 7.42796V24.5719C7.47019 24.5842 7.4699 24.5965 7.46933 24.6087C7.4068 25.9668 8.44839 27.121 9.80328 27.2H22.2025C23.5579 27.1216 24.6002 25.9672 24.5378 24.6087C24.5372 24.5965 24.5369 24.5842 24.5369 24.5719V7.42796C24.5369 7.41569 24.5372 7.40342 24.5378 7.39116C24.6003 6.03314 23.5586 4.87891 22.2038 4.79995H9.80328Z" fill="#3A2D26"/>
<path d="M12.009 17.3342C13.0791 15.7323 15.0021 14.9264 16.8923 15.284L16.9369 15.2926L16.9485 15.295L17.0605 15.319L17.0708 15.3213C18.9397 15.7477 20.3757 17.245 20.7236 19.1301L20.7315 19.1742C21.0589 21.045 20.2519 22.9349 18.6707 23.9917C18.6662 23.9947 18.6617 23.9977 18.6572 24.0006L18.5425 24.0739C18.5394 24.0759 18.5363 24.0779 18.5331 24.0798C16.6278 25.2614 14.1609 24.9658 12.5887 23.374L12.5517 23.3361C10.9988 21.7291 10.7624 19.2663 11.9721 17.3951C11.9834 17.3745 11.9957 17.3541 12.009 17.3342ZM16.6213 16.8612C15.3725 16.6142 14.0979 17.1311 13.3732 18.1734C13.3638 18.1898 13.3539 18.206 13.3432 18.2219C12.5059 19.4743 12.6554 21.141 13.7022 22.2243C14.7481 23.3065 16.4065 23.5136 17.6862 22.7223L17.7869 22.6579C18.8458 21.9472 19.3817 20.6751 19.1501 19.4205V19.4205C18.9184 18.1645 17.9621 17.1668 16.7172 16.8818L16.6213 16.8612Z" fill="#3A2D26"/>
<path d="M13.6744 8.44511C14.3035 7.50318 15.4381 7.03314 16.5491 7.25413C16.553 7.2549 16.5568 7.25569 16.5607 7.25652L16.6166 7.26851L16.6272 7.27085C17.7169 7.51984 18.5541 8.3931 18.757 9.49226C18.9599 10.5915 18.4894 11.706 17.5606 12.3276C17.5578 12.3295 17.555 12.3313 17.5522 12.3332L17.4949 12.3705C17.49 12.3737 17.485 12.3768 17.4801 12.3799C16.36 13.0748 14.907 12.8945 13.9908 11.9468C13.0863 11.0112 12.9469 9.57774 13.6486 8.48671C13.6567 8.47266 13.6653 8.45875 13.6744 8.44511ZM16.2333 8.82269C15.7685 8.73172 15.2948 8.92263 15.0227 9.308C15.0173 9.31672 15.0119 9.32542 15.0061 9.33398C14.6923 9.80362 14.7485 10.4286 15.1411 10.8347L15.1597 10.8535C15.5518 11.2418 16.1597 11.3129 16.6316 11.0233L16.6729 10.9964C17.0696 10.7297 17.2703 10.2529 17.1835 9.78273C17.0967 9.31267 16.7393 8.93906 16.274 8.8314L16.2333 8.82269Z" fill="#3A2D26"/>
</svg>
