<svg width="32" height="32" viewBox="0 0 32 32" fill="none" xmlns="http://www.w3.org/2000/svg">
<path d="M14.6667 26.6661C14.6667 26.3712 14.4283 26.1328 14.1334 26.1328H12.0001C11.7052 26.1328 11.4668 26.3712 11.4668 26.6661C11.4668 26.9611 11.7052 27.1995 12.0001 27.1995H14.1334C14.4283 27.1995 14.6667 26.9611 14.6667 26.6661Z" fill="#4CA0C6"/>
<path d="M20 26.1328H16.2667C15.9718 26.1328 15.7334 26.3712 15.7334 26.6661C15.7334 26.9611 15.9718 27.1995 16.2667 27.1995H20C20.2949 27.1995 20.5333 26.9611 20.5333 26.6661C20.5333 26.3712 20.2949 26.1328 20 26.1328Z" fill="#4CA0C6"/>
<path d="M18.4 28.2661H14.1334C13.8385 28.2661 13.6001 28.5045 13.6001 28.7994C13.6001 29.0944 13.8385 29.3328 14.1334 29.3328H18.4C18.6949 29.3328 18.9333 29.0944 18.9333 28.7994C18.9333 28.5045 18.6949 28.2661 18.4 28.2661Z" fill="#4CA0C6"/>
<path d="M23.2368 8.49906C22.9366 8.18173 22.5131 7.99987 22.0763 7.99987H20.0001V6.39989C20.0001 5.51777 19.2822 4.79992 18.4001 4.79992V3.19995H19.4668C19.7617 3.19995 20.0001 2.96155 20.0001 2.66662V1.59997C20.0001 0.717855 19.2822 0 18.4001 0H14.1335C13.4391 0 12.8525 0.447459 12.6317 1.06665H10.9336C10.0515 1.06665 9.3336 1.7845 9.3336 2.66662C9.3336 2.96155 9.57199 3.19995 9.86692 3.19995C10.1618 3.19995 10.4002 2.96155 10.4002 2.66662C10.4002 2.37223 10.6392 2.1333 10.9336 2.1333H12.5335V2.66662C12.5335 2.96155 12.7719 3.19995 13.0669 3.19995H14.1335V4.79992C13.2514 4.79992 12.5335 5.51777 12.5335 6.39989V7.99987H9.92399C9.48719 7.99987 9.06373 8.18173 8.76294 8.49906C8.46268 8.81585 8.30321 9.24785 8.32615 9.68357L9.41413 30.4838C9.45893 31.3339 10.1608 32 11.0125 32H20.9873C21.839 32 22.5408 31.3339 22.5856 30.4832L23.6736 9.68411C23.6966 9.24838 23.5371 8.81585 23.2368 8.49906ZM13.6002 2.1333V1.59997C13.6002 1.30558 13.8391 1.06665 14.1335 1.06665H18.4001C18.6945 1.06665 18.9334 1.30558 18.9334 1.59997V2.1333H17.8668H14.6668H13.6002ZM17.3335 3.19995V4.79992H15.2002V3.19995H17.3335ZM13.6002 6.39989C13.6002 6.1055 13.8391 5.86657 14.1335 5.86657H14.6668H15.7335V6.39989C15.7335 6.69482 15.9719 6.93322 16.2668 6.93322C16.5617 6.93322 16.8001 6.69482 16.8001 6.39989V5.86657H17.8668H18.4001C18.6945 5.86657 18.9334 6.1055 18.9334 6.39989V7.99987H13.6002V6.39989ZM22.6086 9.62811L21.5206 30.4272C21.5057 30.711 21.2715 30.9328 20.9878 30.9328H11.0125C10.7288 30.9328 10.4941 30.711 10.4797 30.4278L9.39173 9.62757C9.38373 9.48037 9.43546 9.34011 9.53679 9.23291C9.63813 9.12571 9.77626 9.06652 9.92399 9.06652H13.0669H19.4668H22.0763C22.224 9.06652 22.3616 9.12518 22.4635 9.23291C22.5654 9.34064 22.6166 9.48037 22.6086 9.62811Z" fill="#4CA0C6"/>
<path d="M16.2667 18.1331C17.7371 18.1331 18.9333 16.9368 18.9333 15.4664C18.9333 13.9961 17.7371 12.7998 16.2667 12.7998C14.7963 12.7998 13.6001 13.9961 13.6001 15.4664C13.6001 16.9368 14.7963 18.1331 16.2667 18.1331ZM16.2667 13.8665C17.1488 13.8665 17.8667 14.5843 17.8667 15.4664C17.8667 16.3485 17.1488 17.0664 16.2667 17.0664C15.3846 17.0664 14.6667 16.3485 14.6667 15.4664C14.6667 14.5843 15.3846 13.8665 16.2667 13.8665Z" fill="#4CA0C6"/>
<path d="M16.2667 12.2665C16.5617 12.2665 16.8 12.0281 16.8 11.7332V11.1998C16.8 10.9049 16.5617 10.6665 16.2667 10.6665C15.9718 10.6665 15.7334 10.9049 15.7334 11.1998V11.7332C15.7334 12.0281 15.9718 12.2665 16.2667 12.2665Z" fill="#4CA0C6"/>
<path d="M16.8 19.7329V19.1996C16.8 18.9047 16.5617 18.6663 16.2667 18.6663C15.9718 18.6663 15.7334 18.9047 15.7334 19.1996V19.7329C15.7334 20.0278 15.9718 20.2662 16.2667 20.2662C16.5617 20.2662 16.8 20.0278 16.8 19.7329Z" fill="#4CA0C6"/>
<path d="M20.5334 14.9331H20.0001C19.7052 14.9331 19.4668 15.1715 19.4668 15.4664C19.4668 15.7614 19.7052 15.9998 20.0001 15.9998H20.5334C20.8284 15.9998 21.0668 15.7614 21.0668 15.4664C21.0668 15.1715 20.8284 14.9331 20.5334 14.9331Z" fill="#4CA0C6"/>
<path d="M12.0001 15.9998H12.5334C12.8284 15.9998 13.0668 15.7614 13.0668 15.4664C13.0668 15.1715 12.8284 14.9331 12.5334 14.9331H12.0001C11.7052 14.9331 11.4668 15.1715 11.4668 15.4664C11.4668 15.7614 11.7052 15.9998 12.0001 15.9998Z" fill="#4CA0C6"/>
<path d="M18.9067 13.3599C19.0433 13.3599 19.1798 13.3076 19.2838 13.2036L19.6609 12.8265C19.8694 12.618 19.8694 12.2809 19.6609 12.0724C19.4523 11.8639 19.1153 11.8639 18.9067 12.0724L18.5297 12.4495C18.3212 12.658 18.3212 12.9951 18.5297 13.2036C18.6337 13.3076 18.7702 13.3599 18.9067 13.3599Z" fill="#4CA0C6"/>
<path d="M13.6268 18.8604L14.0039 18.4833C14.2124 18.2748 14.2124 17.9377 14.0039 17.7292C13.7954 17.5207 13.4578 17.5212 13.2498 17.7292L12.8727 18.1063C12.6642 18.3148 12.6642 18.6518 12.8727 18.8604C12.9767 18.9644 13.1132 19.0166 13.2498 19.0166C13.3863 19.0166 13.5228 18.9644 13.6268 18.8604Z" fill="#4CA0C6"/>
<path d="M13.2498 13.2036C13.3538 13.3076 13.4903 13.3599 13.6268 13.3599C13.7634 13.3599 13.8999 13.3076 14.0039 13.2036C14.2124 12.9951 14.2124 12.658 14.0039 12.4495L13.6268 12.0724C13.4183 11.8639 13.0812 11.8639 12.8727 12.0724C12.6642 12.2809 12.6642 12.618 12.8727 12.8265L13.2498 13.2036Z" fill="#4CA0C6"/>
<path d="M19.6609 18.1065L19.2838 17.7294C19.0753 17.5209 18.7382 17.5209 18.5297 17.7294C18.3212 17.9379 18.3212 18.275 18.5297 18.4835L18.9067 18.8606C19.0113 18.9651 19.1473 19.0168 19.2838 19.0168C19.4203 19.0168 19.5569 18.9646 19.6609 18.8606C19.8694 18.652 19.8694 18.315 19.6609 18.1065Z" fill="#4CA0C6"/>
<path d="M13.6002 25.0663H17.8668C18.7489 25.0663 19.4668 24.3484 19.4668 23.4663V21.8663C19.4668 21.5714 19.2284 21.333 18.9335 21.333H14.6669C13.7847 21.333 13.0669 22.0509 13.0669 22.933V24.533C13.0669 24.8279 13.3053 25.0663 13.6002 25.0663ZM14.1335 22.933C14.1335 22.6386 14.3725 22.3997 14.6669 22.3997H18.4001V23.4663C18.4001 23.7607 18.1612 23.9996 17.8668 23.9996H14.1335V22.933Z" fill="#4CA0C6"/>
</svg>
