<svg width="32" height="32" viewBox="0 0 32 32" fill="none" xmlns="http://www.w3.org/2000/svg">
<path d="M23.1609 0C22.9185 0 22.7219 0.196609 22.7219 0.439022V1.92518H22.1678V0.439022C22.1678 0.196609 21.9712 0 21.7288 0C21.4864 0 21.2897 0.196609 21.2897 0.439022V1.92518H20.7356V0.439022C20.7356 0.196609 20.5391 0 20.2966 0C20.0541 0 19.8576 0.196609 19.8576 0.439022V1.92518H19.3034V0.439022C19.3034 0.196609 19.1068 0 18.8644 0C18.6219 0 18.4254 0.196609 18.4254 0.439022V1.92518H17.8712V0.439022C17.8712 0.196609 17.6747 0 17.4322 0C17.1898 0 16.9932 0.196609 16.9932 0.439022V1.92518H16.4391V0.439022C16.4391 0.196609 16.2425 0 16.0001 0C15.7576 0 15.561 0.196609 15.561 0.439022V1.92518H15.0069V0.439022C15.0069 0.196609 14.8103 0 14.5679 0C14.3254 0 14.1289 0.196609 14.1289 0.439022V1.92518H13.5747V0.439022C13.5747 0.196609 13.3782 0 13.1357 0C12.8932 0 12.6967 0.196609 12.6967 0.439022V1.92518H12.1425V0.439022C12.1425 0.196609 11.946 0 11.7035 0C11.4611 0 11.2645 0.196609 11.2645 0.439022V1.92518H10.7104V0.439022C10.7104 0.196609 10.5137 0 10.2713 0C10.0288 0 9.83231 0.196609 9.83231 0.439022V1.92518H9.27819V0.439022C9.27819 0.196609 9.08165 0 8.83917 0C8.59676 0 8.40015 0.196609 8.40015 0.439022V2.36421V3.08874V28.9113V29.6358V31.561C8.40015 31.8034 8.59676 32 8.83917 32C9.08165 32 9.27819 31.8034 9.27819 31.561V30.0748H9.83231V31.561C9.83231 31.8034 10.0288 32 10.2713 32C10.5137 32 10.7104 31.8034 10.7104 31.561V30.0748H11.2645V31.561C11.2645 31.8034 11.4611 32 11.7035 32C11.946 32 12.1425 31.8034 12.1425 31.561V30.0748H12.6967V31.561C12.6967 31.8034 12.8932 32 13.1357 32C13.3782 32 13.5747 31.8034 13.5747 31.561V30.0748H14.1289V31.561C14.1289 31.8034 14.3254 32 14.5679 32C14.8103 32 15.0069 31.8034 15.0069 31.561V30.0748H15.561V31.561C15.561 31.8034 15.7576 32 16.0001 32C16.2425 32 16.4391 31.8034 16.4391 31.561V30.0748H16.9932V31.561C16.9932 31.8034 17.1898 32 17.4322 32C17.6747 32 17.8712 31.8034 17.8712 31.561V30.0748H18.4254V31.561C18.4254 31.8034 18.622 32 18.8644 32C19.1068 32 19.3034 31.8034 19.3034 31.561V30.0748H19.8576V31.561C19.8576 31.8034 20.0541 32 20.2966 32C20.5391 32 20.7356 31.8034 20.7356 31.561V30.0748H21.2897V31.561C21.2897 31.8034 21.4864 32 21.7288 32C21.9712 32 22.1678 31.8034 22.1678 31.561V30.0748H22.7219V31.561C22.7219 31.8034 22.9185 32 23.1609 32C23.4034 32 23.6 31.8034 23.6 31.561V29.6358V28.9113V3.08874V2.36421V0.439022C23.6 0.196609 23.4034 0 23.1609 0ZM9.27804 15.8941L22.7219 10.8675V16.1409L9.27804 21.1674V15.8941ZM22.7219 9.93009L9.27804 14.9566V9.68328L22.7219 4.65678V9.93009ZM9.27804 22.1048L22.7219 17.0783V22.3515L9.27804 27.378V22.1048ZM9.83216 2.80323V3.08874C9.83216 3.33122 10.0287 3.52776 10.2712 3.52776C10.5136 3.52776 10.7102 3.33122 10.7102 3.08874V2.80323H11.2643V3.08874C11.2643 3.33122 11.4609 3.52776 11.7033 3.52776C11.9458 3.52776 12.1424 3.33122 12.1424 3.08874V2.80323H12.6966V3.08874C12.6966 3.33122 12.8931 3.52776 13.1356 3.52776C13.3781 3.52776 13.5746 3.33122 13.5746 3.08874V2.80323H14.1287V3.08874C14.1287 3.33122 14.3253 3.52776 14.5677 3.52776C14.8102 3.52776 15.0068 3.33122 15.0068 3.08874V2.80323H15.5609V3.08874C15.5609 3.33122 15.7575 3.52776 15.9999 3.52776C16.2424 3.52776 16.4389 3.33122 16.4389 3.08874V2.80323H16.993V3.08874C16.993 3.33122 17.1897 3.52776 17.4321 3.52776C17.6746 3.52776 17.8711 3.33122 17.8711 3.08874V2.80323H18.4252V3.08874C18.4252 3.33122 18.6218 3.52776 18.8642 3.52776C19.1066 3.52776 19.3032 3.33122 19.3032 3.08874V2.80323H19.8574V3.08874C19.8574 3.33122 20.054 3.52776 20.2965 3.52776C20.5389 3.52776 20.7355 3.33122 20.7355 3.08874V2.80323H21.2896V3.08874C21.2896 3.33122 21.4862 3.52776 21.7286 3.52776C21.971 3.52776 22.1676 3.33122 22.1676 3.08874V2.80323H22.7218V3.08874V3.71932L9.2779 8.74583V3.08874V2.80323H9.83216ZM22.1678 29.1968V28.9113C22.1678 28.6688 21.9712 28.4722 21.7288 28.4722C21.4864 28.4722 21.2897 28.6688 21.2897 28.9113V29.1968H20.7356V28.9113C20.7356 28.6688 20.5391 28.4722 20.2966 28.4722C20.0541 28.4722 19.8576 28.6688 19.8576 28.9113V29.1968H19.3034V28.9113C19.3034 28.6688 19.1068 28.4722 18.8644 28.4722C18.6219 28.4722 18.4254 28.6688 18.4254 28.9113V29.1968H17.8712V28.9113C17.8712 28.6688 17.6747 28.4722 17.4322 28.4722C17.1898 28.4722 16.9932 28.6688 16.9932 28.9113V29.1968H16.4391V28.9113C16.4391 28.6688 16.2425 28.4722 16.0001 28.4722C15.7576 28.4722 15.561 28.6688 15.561 28.9113V29.1968H15.0069V28.9113C15.0069 28.6688 14.8103 28.4722 14.5679 28.4722C14.3254 28.4722 14.1289 28.6688 14.1289 28.9113V29.1968H13.5747V28.9113C13.5747 28.6688 13.3782 28.4722 13.1357 28.4722C12.8932 28.4722 12.6967 28.6688 12.6967 28.9113V29.1968H12.1425V28.9113C12.1425 28.6688 11.946 28.4722 11.7035 28.4722C11.4611 28.4722 11.2645 28.6688 11.2645 28.9113V29.1968H10.7104V28.9113C10.7104 28.6688 10.5137 28.4722 10.2713 28.4722C10.0288 28.4722 9.83231 28.6688 9.83231 28.9113V29.1968H9.27819V28.9113V28.3154L22.7221 23.2889V28.9113V29.1968H22.1678Z" fill="#FFDB91"/>
</svg>
