<svg width="32" height="32" viewBox="0 0 32 32" fill="none" xmlns="http://www.w3.org/2000/svg">
<path d="M27.4406 2.81113H21.6876V1.96125C21.6876 0.879812 20.8078 0 19.7263 0H12.2736C11.1921 0 10.3123 0.879812 10.3123 1.96125V2.81113H4.55927C4.19821 2.81113 3.90552 3.10381 3.90552 3.46487V6.92975C3.90552 7.29081 4.19821 7.5835 4.55927 7.5835H5.30983L7.77427 31.4135C7.8087 31.7467 8.08952 32 8.42458 32H23.5753C23.9104 32 24.1911 31.7467 24.2256 31.4135L26.6901 7.5835H27.4406C27.8017 7.5835 28.0944 7.29081 28.0944 6.92975V3.46487C28.0944 3.10381 27.8017 2.81113 27.4406 2.81113ZM11.6198 1.96125C11.6198 1.60075 11.9131 1.3075 12.2736 1.3075H19.7264C20.0869 1.3075 20.3801 1.60075 20.3801 1.96125V2.81113H11.6198V1.96125ZM22.9857 30.6925H9.0142L8.86227 29.2236H19.1803C19.5414 29.2236 19.8341 28.9309 19.8341 28.5698C19.8341 28.2088 19.5414 27.9161 19.1803 27.9161H8.72708L6.62427 7.58356H25.3756L22.9857 30.6925ZM26.7869 6.27606H5.21302V4.11863H26.7869V6.27606Z" fill="#F1731F"/>
<path d="M18.2309 14.0726C18.0554 14.0726 17.8964 14.1421 17.779 14.2546L16.5661 12.1538C16.4494 11.9515 16.2336 11.8269 16 11.8269C15.7664 11.8269 15.5506 11.9515 15.4339 12.1538L13.7559 15.0601C13.5754 15.3728 13.6826 15.7726 13.9952 15.9531C14.308 16.1336 14.7077 16.0265 14.8882 15.7138L15.9999 13.7882L16.6469 14.9088C16.4899 14.9539 16.3494 15.0571 16.2614 15.2097C16.0808 15.5224 16.1879 15.9222 16.5006 16.1027L17.904 16.913C18.0051 16.9713 18.118 17.0006 18.2309 17.0006C18.3438 17.0006 18.4566 16.9713 18.5578 16.913C18.76 16.7962 18.8846 16.5804 18.8846 16.3468V14.7264C18.8846 14.3653 18.5919 14.0726 18.2309 14.0726Z" fill="#F1731F"/>
<path d="M21.6 20.8728L19.922 17.9664C19.7415 17.6537 19.3417 17.5465 19.029 17.7272C18.7165 17.9077 18.6093 18.3075 18.7898 18.6202L19.9016 20.5459H18.7759C18.812 20.3901 18.7921 20.2209 18.7059 20.0714C18.5254 19.7587 18.1256 19.6516 17.8129 19.8322L16.425 20.6335C16.2228 20.7503 16.0981 20.9661 16.0981 21.1996C16.0981 21.4332 16.2228 21.649 16.425 21.7658L17.8129 22.5671C17.9158 22.6265 18.0283 22.6548 18.1392 22.6548C18.3651 22.6548 18.5849 22.5376 18.706 22.3278C18.7923 22.1784 18.8121 22.0092 18.776 21.8534H21.034C21.2675 21.8534 21.4833 21.7288 21.6001 21.5265C21.7168 21.3242 21.7168 21.075 21.6 20.8728Z" fill="#F1731F"/>
<path d="M14.3219 20.546H12.0983L12.9612 19.0513C13.0737 19.1416 13.2159 19.1954 13.3695 19.1954C13.3825 19.1954 13.3954 19.195 13.4085 19.1942C13.769 19.173 14.044 18.8636 14.0228 18.5032L13.9274 16.8812C13.9137 16.6481 13.7766 16.4399 13.5679 16.3352C13.3591 16.2305 13.1104 16.2452 12.9152 16.3736L11.5582 17.2672C11.2567 17.4658 11.1732 17.8712 11.3718 18.1728C11.473 18.3265 11.6281 18.4232 11.7957 18.4551L10.3999 20.8727C10.283 21.075 10.283 21.3243 10.3999 21.5265C10.5166 21.7288 10.7324 21.8534 10.966 21.8534H14.3219C14.683 21.8534 14.9757 21.5607 14.9757 21.1997C14.9757 20.8386 14.683 20.546 14.3219 20.546Z" fill="#F1731F"/>
<path d="M21.3039 27.916H21.2954C20.9343 27.916 20.6416 28.2087 20.6416 28.5698C20.6416 28.9308 20.9343 29.2235 21.2954 29.2235H21.3039C21.665 29.2235 21.9577 28.9308 21.9577 28.5698C21.9577 28.2087 21.665 27.916 21.3039 27.916Z" fill="#F1731F"/>
</svg>
