<svg width="32" height="32" viewBox="0 0 32 32" fill="none" xmlns="http://www.w3.org/2000/svg">
<path d="M22.8467 5.36935C25.4721 6.88535 27.3387 9.46802 28.0334 12.5507C28.4311 14.3357 28.4334 16.1861 28.0401 17.972C27.5587 20.1987 24.9587 20.8814 22.9854 19.7427L10.3294 12.436C8.35608 11.296 7.64675 8.70269 9.33475 7.17202C10.6843 5.93791 12.2876 5.01407 14.0321 4.46535C17.0494 3.52802 20.2214 3.85202 22.8467 5.36935ZM22.8467 5.36935C21.0227 4.31602 16.7734 8.26269 13.3547 14.1827M22.8467 5.36935C24.6694 6.42135 23.3747 12.0734 19.9561 17.9947M16.6561 16.088L11.8427 24.4267M21.2121 28.06C18.8852 25.7338 15.7297 24.4269 12.4394 24.4269C9.14915 24.4269 5.99361 25.7338 3.66675 28.06" stroke="#4CA0C6" stroke-width="2" stroke-linecap="round" stroke-linejoin="round"/>
</svg>
